<?xml  version="1.0" encoding="UTF-8"?>
<!DOCTYPE svg PUBLIC "-//W3C//DTD SVG 1.0//EN" "http://www.w3.org/TR/2001/REC-SVG-20010904/DTD/svg10.dtd" >
<svg xmlns="http://www.w3.org/2000/svg" >
<metadata>
<version>1.0</version>
<id><![CDATA[ITC Franklin Gothic W10 Md]]></id>
<vendor>Monotype Imaging Inc.</vendor>
<credits>
<name>Fonts.com WebFonts</name>
<URL>http://webfonts.fonts.com</URL>
<role>Home of the Web fonts</role>
</credits>
<license>
<URL>http://webfonts.fonts.com/Legal</URL>
</license>
<copyright><![CDATA[Copyright (c) 1990-2002 ParaType, Inc. All Rights Reserved. ITC Franklin Gothic is a registered trade mark of International Typeface Corporation.]]></copyright>
<trademark><![CDATA[This software is a property of ParaType, Inc. ITC Franklin Gothic is a registered trade mark of International Typeface Corporation.]]></trademark>
<licensee>
<name></name>
</licensee>
</metadata>
<defs >
<font horiz-adv-x="563" id="b304315e-4ef2-4a5c-a70d-a423d95db8cc">
<font-face font-family="" panose-1="0 0 0 0 0 0 0 0 0 0" ascent="989" descent="-361" units-per-em="1000" alphabetic="0">
</font-face>
<missing-glyph horiz-adv-x="233" />

<glyph unicode="&#xA;" />
<glyph unicode="&#xD;" />
<glyph unicode=" " horiz-adv-x="233" />
<glyph unicode="!" horiz-adv-x="293" d="M215 132V0H83V132H215ZM228 686L184 191H114L70 686H228Z"  />
<glyph unicode="&quot;" horiz-adv-x="398" d="M55 686H169L140 425H84L55 686ZM229 686H343L314 425H258L229 686Z"  />
<glyph unicode="#" horiz-adv-x="594" d="M377 0H293L332 193H206L168 0H84L123 193H17V271H138L166 417H58V495H182L220 689H304L266 495H391L430 689H514L475 495H577V417H460L431 271H539V193H416L377 0ZM347 271L376 417H250L221 271H347Z"  />
<glyph unicode="$" horiz-adv-x="599" d="M258 777H329V696Q412 687 466 647T545 528L435 496Q425 533 397 558T329 591V410L364 402Q419 389 448 377T500 347Q529 322 548 285T567 204Q567 157 545 115T488 45Q459 22 417 8T329 -10V-89H258V-8Q166 -2 97 49T4 188L121 210Q136 163 168 135T249 95Q251 94 253 94T258 93V298L230 305Q189 315 158 329T106 360Q75 384 58 418T40 495Q40 541 59 582T119 651Q147 670 183 681T258 696V777ZM329 281V90Q376 91 405 118T435 183Q435 217 402 249T331 281H329ZM258 427V596Q215 593 190 569T166 508Q166 477 192 456T258 427Z"  />
<glyph unicode="%" horiz-adv-x="857" d="M669 686L253 0H173L589 686H669ZM220 693Q296 693 340 641T384 498Q384 406 340 355T220 303Q143 302 100 354T56 498Q55 589 99 640T220 693ZM220 619Q185 619 168 589T150 502Q150 445 167 415T220 385Q254 385 272 415T290 502Q290 558 272 588T220 619ZM637 384Q713 384 756 332T801 189Q801 97 757 46T637 -6Q560 -6 517 45T473 189Q473 280 516 331T637 384ZM637 310Q602 310 585 280T567 193Q567 136 584 106T637 76Q671 76 689 106T707 193Q706 249 689 279T637 310Z"  />
<glyph unicode="&amp;" horiz-adv-x="693" d="M556 384L664 367Q649 296 619 236T544 130Q561 112 577 105T619 97Q629 97 643 98T672 102V5Q644 0 629 -2T595 -4Q559 -4 533 6T477 44L465 55Q428 24 381 7T276 -10Q226 -10 183 3T107 42Q70 69 50 108T30 195Q30 237 48 275T103 345Q122 361 146 373T199 395Q158 453 145 482T132 542Q132 608 180 652T318 696Q363 695 395 686T454 658Q481 637 495 608T510 543Q510 502 494 471T443 414Q423 399 400 387T355 368L472 203Q504 238 525 283T556 384ZM307 435L327 447Q374 475 386 493T400 537Q400 567 377 586T320 606Q287 606 269 588T250 542Q250 526 256 510T292 455L307 435ZM399 128L254 326Q239 321 226 315T202 299Q180 281 170 258T159 207Q159 158 193 123T289 88Q318 88 347 98T399 128Z"  />
<glyph unicode="&apos;" horiz-adv-x="224" d="M55 686H169L140 425H84L55 686Z"  />
<glyph unicode="(" horiz-adv-x="322" d="M206 686H286Q222 587 191 479T159 263Q158 150 191 41T287 -168H207Q166 -117 140 -67T92 54Q70 119 63 167T55 261Q55 323 67 385T102 504Q121 554 147 599T206 686Z"  />
<glyph unicode=")" horiz-adv-x="322" d="M36 686H116Q150 642 178 593T226 490Q246 433 256 373T267 261Q267 213 257 158T229 48Q209 -8 181 -62T115 -168H35Q95 -74 129 34T163 263Q163 378 130 485T36 686Z"  />
<glyph unicode="*" horiz-adv-x="564" d="M242 686H322L312 520L457 602L490 531L339 466L490 401L457 330L312 412L322 246H242L252 412L107 330L74 401L225 466L74 531L107 602L252 520L242 686Z"  />
<glyph unicode="+" horiz-adv-x="645" d="M276 547H369V335H581V242H369V30H276V242H64V335H276V547Z"  />
<glyph unicode="&#x2c;" horiz-adv-x="284" d="M210 136V13L123 -145H69L135 0H74V136H210Z"  />
<glyph unicode="-" horiz-adv-x="266" d="M246 310V216H20V310H246Z"  />
<glyph unicode="." horiz-adv-x="284" d="M74 136H210V0H74V136Z"  />
<glyph unicode="/" horiz-adv-x="517" d="M493 686L54 -171H-35L404 686H493Z"  />
<glyph unicode="0" horiz-adv-x="616" d="M45 343Q45 413 60 477T111 592Q146 643 193 669T308 696Q374 696 421 670T505 592Q539 541 555 477T571 343Q571 272 555 208T505 94Q469 42 422 16T308 -10Q241 -9 194 16T111 94Q76 144 61 208T45 343ZM169 343Q169 287 174 245T191 174Q206 131 236 108T308 84Q349 83 379 107T425 174Q435 202 440 244T447 343Q447 398 441 440T425 512Q409 554 379 578T308 602Q266 601 236 578T191 512Q180 483 175 441T169 343Z"  />
<glyph unicode="1" horiz-adv-x="616" d="M375 689V104H555V0H60V104H253V548Q209 511 166 482T76 433V541Q152 574 200 609T282 689H375Z"  />
<glyph unicode="2" horiz-adv-x="616" d="M168 455L57 482Q62 515 75 545T107 601Q144 649 196 672T313 696Q363 696 405 683T480 645Q515 617 535 577T556 485Q556 423 522 367T426 264L217 104H558L555 0H57V99L320 304Q377 348 404 392T432 481Q432 506 422 527T392 566Q374 580 353 588T305 596Q269 596 240 579T193 535Q182 518 176 497T168 455Z"  />
<glyph unicode="3" horiz-adv-x="616" d="M173 502L64 525Q75 560 95 589T148 643Q184 671 222 683T306 696Q357 696 403 683T483 645Q515 619 532 584T550 510Q550 455 516 414T428 359Q492 348 533 305T575 194Q575 149 556 111T501 45Q465 17 414 4T309 -10Q256 -10 215 2T136 40Q98 65 75 97T41 173L154 199Q159 176 169 159T197 128Q221 107 247 98T307 90Q336 90 364 97T412 119Q432 133 441 153T451 198Q451 224 439 246T404 283Q383 296 355 301T287 308H217V400H282Q322 400 344 404T384 419Q405 431 417 451T430 498Q430 511 425 526T411 554Q396 573 369 584T308 596Q262 596 226 572T173 502Z"  />
<glyph unicode="4" horiz-adv-x="616" d="M478 689V253H585V157H478V0H354V157H35V244L330 689H478ZM354 253V581L143 253H354Z"  />
<glyph unicode="5" horiz-adv-x="616" d="M527 686L517 584H196L183 402Q214 432 252 447T333 464Q379 464 423 447T502 399Q536 366 552 324T569 233Q569 183 551 141T503 67Q467 30 414 10T301 -10Q211 -10 140 38T48 167L156 191Q169 147 208 119T301 90Q362 90 403 128T445 227Q445 251 436 275T410 320Q390 341 365 352T309 364Q267 364 233 345T177 292L79 309L104 686H527Z"  />
<glyph unicode="6" horiz-adv-x="617" d="M550 536L446 513Q432 552 402 575T326 599Q288 599 260 584T210 534Q188 499 178 452T167 331Q193 383 242 414T352 445Q396 444 436 429T511 382Q543 350 559 311T575 225Q575 171 555 129T499 55Q464 24 419 7T320 -10Q247 -10 192 19T103 101Q74 143 59 201T43 325Q43 405 61 471T118 590Q160 646 210 671T323 696Q406 696 466 656T550 536ZM321 85Q346 85 371 94T415 124Q432 141 441 165T451 216Q451 244 441 268T412 312Q394 329 372 338T324 348Q296 347 270 338T225 309Q204 289 195 265T185 211Q185 183 193 162T220 122Q237 103 263 94T321 85Z"  />
<glyph unicode="7" horiz-adv-x="616" d="M546 686V609Q494 544 453 476T387 343Q352 255 337 173T323 0H189Q193 88 213 171T271 343Q299 408 332 461T423 584H69L80 686H546Z"  />
<glyph unicode="8" horiz-adv-x="616" d="M183 349Q131 370 100 413T68 508Q68 546 90 585T144 649Q173 671 217 683T312 696Q367 696 412 682T489 643Q519 619 534 587T551 522Q551 472 520 431T433 370Q501 341 539 297T578 191Q578 141 557 103T492 37Q452 11 407 1T309 -10Q255 -10 208 2T121 40Q80 66 59 100T38 177Q37 235 76 280T183 349ZM321 408Q376 422 406 447T437 508Q436 552 401 579T305 606Q251 606 218 580T186 518Q186 481 226 450T321 408ZM286 304Q230 291 193 259T156 187Q156 137 196 108T307 80Q377 79 415 106T454 176Q454 215 414 247T286 304Z"  />
<glyph unicode="9" horiz-adv-x="617" d="M68 150L172 173Q185 133 215 110T292 87Q329 87 357 102T408 152Q429 186 439 233T451 355Q424 302 375 271T266 241Q221 240 180 256T104 307Q73 337 58 375T43 461Q43 512 64 558T125 637Q160 665 204 680T298 696Q371 696 424 668T511 590Q543 542 559 485T575 361Q575 280 557 214T500 96Q460 42 412 16T295 -10Q211 -9 151 30T68 150ZM297 601Q271 601 248 591T207 565Q186 545 177 521T167 470Q167 441 176 418T202 378Q220 358 243 348T294 338Q324 337 350 348T396 380Q414 398 423 422T433 475Q433 498 425 521T401 562Q383 581 356 591T297 601Z"  />
<glyph unicode=":" horiz-adv-x="284" d="M210 136V0H74V136H210ZM210 510V374H74V510H210Z"  />
<glyph unicode=";" horiz-adv-x="284" d="M210 136V13L123 -145H69L135 0H74V136H210ZM210 510V374H74V510H210Z"  />
<glyph unicode="&lt;" horiz-adv-x="644" d="M199 289L562 144V48L66 251V326L562 530V434L199 289Z"  />
<glyph unicode="=" horiz-adv-x="644" d="M64 347V440H580V347H64ZM64 137V230H580V137H64Z"  />
<glyph unicode="&gt;" horiz-adv-x="644" d="M445 289L82 434V530L578 326V251L82 48V144L445 289Z"  />
<glyph unicode="?" horiz-adv-x="532" d="M129 465L18 483Q23 535 47 578T110 651Q142 675 179 685T266 696Q316 696 355 684T428 645Q462 617 480 580T499 495Q499 446 475 407T396 332Q327 287 315 269T303 229V186H197V219Q196 279 210 310T259 362L295 384Q335 408 353 436T371 499Q371 520 362 540T336 576Q321 588 301 595T257 602Q198 602 166 562T129 465ZM316 126V0H184V126H316Z"  />
<glyph unicode="@" horiz-adv-x="829" d="M584 98L629 61Q590 26 535 8T415 -10Q354 -10 291 11T185 68Q128 112 94 180T60 332Q60 409 89 478T170 597Q218 644 283 670T435 696Q515 696 578 672T687 602Q726 562 747 512T769 404Q769 284 704 217T552 149Q518 149 495 163T469 202Q438 170 415 160T362 149Q305 149 265 188T224 304Q223 392 284 456T421 521Q461 521 486 506T526 460L541 510H617L549 256Q545 243 545 241T545 237Q545 222 552 214T577 206Q631 206 664 259T698 385Q698 421 687 458T658 522Q624 569 561 597T422 626Q362 626 315 608T233 558Q190 518 166 458T142 329Q142 260 166 207T237 118Q272 90 317 76T419 61Q466 61 507 70T584 98ZM431 448Q385 448 349 404T312 302Q312 268 330 245T380 221Q430 220 462 271T495 376Q494 406 477 426T431 448Z"  />
<glyph unicode="A" horiz-adv-x="587" d="M364 686L584 0H450L395 178H169L115 0H5L224 686H364ZM369 274L282 558L194 274H369Z"  />
<glyph unicode="B" horiz-adv-x="647" d="M77 686H370Q424 686 462 676T528 647Q557 625 572 592T588 517Q588 481 576 452T544 404Q531 391 511 380T470 362V360Q492 355 512 346T549 324Q579 299 594 265T609 189Q609 146 593 110T547 48Q517 22 477 11T377 0H77V686ZM203 586V404H329Q367 403 390 410T429 431Q443 443 450 460T459 499Q459 521 451 537T426 566Q411 575 390 580T337 586H203ZM203 308V100H348Q376 100 399 106T438 125Q453 137 463 158T473 203Q473 224 465 242T444 275Q426 292 405 299T340 308H203Z"  />
<glyph unicode="C" horiz-adv-x="645" d="M605 460L486 446Q483 469 475 491T456 532Q434 565 406 580T341 596Q295 596 264 575T212 511Q196 479 189 441T182 348Q182 293 188 253T209 183Q229 139 263 114T342 90Q372 90 397 102T445 139Q461 158 473 184T489 242L605 227Q598 178 577 136T526 63Q490 27 447 9T348 -10Q268 -10 206 23T103 122Q74 167 60 225T46 348Q46 432 69 499T135 611Q173 652 224 674T344 696Q398 695 444 679T527 628Q561 595 580 551T605 460Z"  />
<glyph unicode="D" horiz-adv-x="676" d="M77 686H300Q382 686 442 663T547 594Q588 549 612 480T636 341Q635 293 624 243T591 151Q550 76 484 38T320 0H77V686ZM203 100H297Q354 99 392 117T457 176Q477 208 488 253T500 350Q500 405 487 449T447 525Q421 555 386 570T298 586H203V100Z"  />
<glyph unicode="E" horiz-adv-x="575" d="M77 686H538V586H203V404H470V308H203V100H544V0H77V686Z"  />
<glyph unicode="F" horiz-adv-x="536" d="M522 686V586H203V404H463V308H203V0H77V686H522Z"  />
<glyph unicode="G" horiz-adv-x="686" d="M619 361V-3H546L521 77Q507 58 491 44T458 20Q431 4 398 -3T329 -10Q260 -10 208 14T118 86Q79 132 60 198T40 335Q40 414 61 482T120 595Q159 641 218 668T349 696Q402 696 452 679T537 630Q564 604 583 566T611 485L489 465Q486 484 479 503T462 537Q442 565 410 580T344 596Q298 596 264 573T209 512Q193 483 185 441T176 344Q176 289 185 246T212 172Q234 134 270 112T351 90Q380 90 406 100T453 132Q473 153 483 178T493 235V261H340V361H619Z"  />
<glyph unicode="H" horiz-adv-x="674" d="M597 686V0H471V309H203V0H77V686H203V409H471V686H597Z"  />
<glyph unicode="I" horiz-adv-x="280" d="M203 686V0H77V686H203Z"  />
<glyph unicode="J" horiz-adv-x="393" d="M316 686V235Q316 164 307 126T276 60Q249 24 207 7T107 -10Q82 -10 56 -8T0 0V100Q19 95 39 93T80 90Q109 90 128 97T162 119Q175 133 182 155T190 225V686H316Z"  />
<glyph unicode="K" horiz-adv-x="670" d="M203 686V327H205L471 686H597L416 442L652 0H508L332 339L203 175V0H77V686H203Z"  />
<glyph unicode="L" horiz-adv-x="525" d="M203 686V100H509V0H77V686H203Z"  />
<glyph unicode="M" horiz-adv-x="851" d="M252 686L424 198H426L596 686H774V0H648V563H646L456 0H372L178 563H177V0H77V686H252Z"  />
<glyph unicode="N" horiz-adv-x="687" d="M215 686L503 185H511Q508 202 506 225T504 259V686H610V0H496L181 548H175Q176 535 179 517T183 465V0H77V686H215Z"  />
<glyph unicode="O" horiz-adv-x="676" d="M338 696Q397 696 447 678T538 622Q584 577 610 507T636 343Q636 248 610 178T538 64Q498 26 448 8T338 -10Q278 -10 228 8T138 64Q91 108 66 178T40 343Q40 437 65 507T138 622Q177 659 227 677T338 696ZM338 596Q303 596 273 581T222 533Q200 501 188 450T176 343Q175 287 187 236T222 153Q243 120 273 105T338 90Q372 90 402 105T454 153Q475 184 487 235T500 343Q500 398 488 449T454 533Q432 565 402 580T338 596Z"  />
<glyph unicode="P" horiz-adv-x="605" d="M77 686H315Q385 685 425 676T497 645Q535 618 557 577T580 481Q579 385 516 327T347 268H203V0H77V686ZM203 368H320Q362 368 383 375T420 397Q435 411 444 434T454 480Q454 501 445 522T421 558Q404 572 380 579T325 586H203V368Z"  />
<glyph unicode="Q" horiz-adv-x="676" d="M603 -40V-140Q581 -145 562 -147T522 -150Q446 -149 405 -112T359 -8Q350 -8 342 -9T327 -10Q277 -10 227 8T138 64Q91 108 65 178T40 343Q40 437 65 507T138 622Q177 659 227 677T338 696Q397 696 447 678T538 622Q583 578 609 507T636 343Q636 227 589 141T450 20Q457 -19 473 -34T530 -50Q552 -50 569 -48T603 -40ZM338 596Q303 596 273 581T222 533Q200 501 188 450T176 343Q175 287 187 236T222 153Q243 120 273 105T338 90Q372 90 402 105T454 153Q475 184 487 235T500 343Q500 398 488 449T454 533Q432 565 402 580T338 596Z"  />
<glyph unicode="R" horiz-adv-x="659" d="M77 686H361Q411 685 456 674T531 639Q563 613 580 573T598 489Q597 423 564 376T475 307L610 0H472L353 282H203V0H77V686ZM203 586V382H362Q389 381 411 390T449 418Q459 430 465 448T472 487Q472 535 441 560T342 586H203Z"  />
<glyph unicode="S" horiz-adv-x="603" d="M551 528L441 496Q435 516 424 533T398 563Q377 579 349 587T289 596Q232 595 202 571T172 508Q172 476 197 456T277 424L370 402Q432 387 459 375T506 347Q535 322 554 285T573 204Q573 157 551 115T494 45Q460 19 412 5T306 -10Q246 -10 195 4T105 48Q70 73 46 109T10 188L127 210Q136 180 153 157T194 120Q217 104 244 97T305 90Q372 90 406 116T441 183Q441 215 415 241T337 281L236 305Q202 313 168 327T112 360Q81 384 64 418T46 495Q46 542 66 582T125 651Q157 673 201 684T297 696Q347 695 394 682T476 643Q502 622 521 592T551 528Z"  />
<glyph unicode="T" horiz-adv-x="482" d="M0 686H482V586H304V0H178V586H0V686Z"  />
<glyph unicode="U" horiz-adv-x="637" d="M70 686H196V252Q195 199 201 175T221 134Q237 112 264 101T332 90Q368 90 393 100T436 131Q451 149 458 176T466 252V686H570V250Q569 177 555 135T512 60Q479 25 432 8T324 -10Q262 -10 214 4T132 52Q102 80 86 122T70 246V686Z"  />
<glyph unicode="V" horiz-adv-x="586" d="M2 686H136L306 162L474 686H584L357 0H230L2 686Z"  />
<glyph unicode="W" horiz-adv-x="863" d="M11 686H137L261 183L390 686H492L630 183L748 686H852L681 0H565L433 481L307 0H191L11 686Z"  />
<glyph unicode="X" horiz-adv-x="600" d="M28 686H174L309 455L444 686H566L371 368L594 0H448L291 267L128 0H6L229 357L28 686Z"  />
<glyph unicode="Y" horiz-adv-x="551" d="M565 686L340 289V0H214V289L-14 686H130L290 402L451 686H565Z"  />
<glyph unicode="Z" horiz-adv-x="554" d="M40 686H523V604L174 104H533V0H21V92L369 582H40V686Z"  />
<glyph unicode="[" horiz-adv-x="343" d="M275 686V622H173V-104H275V-168H77V686H275Z"  />
<glyph unicode="\" horiz-adv-x="560" d="M121 686L528 0H439L32 686H121Z"  />
<glyph unicode="]" horiz-adv-x="343" d="M68 686H266V-168H68V-104H170V622H68V686Z"  />
<glyph unicode="^" horiz-adv-x="492" d="M246 552L140 258H50L224 686H268L442 258H352L246 552Z"  />
<glyph unicode="_" horiz-adv-x="500" d="M500 -65V-127H0V-65H500Z"  />
<glyph unicode="`" horiz-adv-x="384" d="M84 743L295 631L273 581L50 667L84 743Z"  />
<glyph unicode="a" horiz-adv-x="569" d="M162 361L53 375Q62 416 85 445T143 493Q168 506 204 513T289 520Q338 519 376 511T441 484Q472 461 487 425T503 325V109Q502 88 505 59T514 0H398Q393 20 391 41T387 87Q362 39 319 15T217 -10Q133 -10 85 32T37 144Q36 189 59 224T126 282Q158 298 211 308T330 320L387 321V338Q387 359 383 378T369 410Q357 424 337 432T282 440Q257 439 239 436T206 425Q188 415 177 398T162 361ZM387 248L334 247Q305 246 277 243T231 233Q198 221 181 199T163 145Q163 131 168 119T184 98Q195 87 213 81T254 74Q282 74 309 86T354 121Q369 139 378 167T387 222V248Z"  />
<glyph unicode="b" horiz-adv-x="570" d="M186 686V433Q211 476 250 498T336 520Q377 520 412 504T473 457Q501 423 517 373T533 259Q533 202 518 151T476 65Q445 25 407 8T321 -10Q269 -10 227 12T161 81L132 0H70V686H186ZM186 310V215Q186 181 191 161T208 123Q223 98 246 86T295 74Q322 73 344 87T381 129Q393 151 400 185T407 258Q407 296 401 329T382 385Q367 410 346 423T296 436Q248 436 217 404T186 310Z"  />
<glyph unicode="c" horiz-adv-x="503" d="M478 336L372 323Q370 342 363 363T347 398Q334 415 315 425T271 436Q245 436 225 425T190 389Q176 366 170 332T163 255Q162 210 169 175T190 120Q203 99 224 87T271 74Q293 74 311 83T345 112Q355 127 362 147T372 189L478 176Q473 138 457 103T414 43Q385 16 347 4T267 -10Q219 -10 180 4T113 47Q76 82 57 135T37 254Q37 313 52 360T96 440Q125 475 171 497T270 520Q315 520 353 505T418 464Q441 440 456 406T478 336Z"  />
<glyph unicode="d" horiz-adv-x="570" d="M500 686V0H393V79H391Q372 38 333 14T241 -10Q196 -10 158 8T92 65Q65 100 51 148T37 254Q37 319 53 370T101 457Q130 490 166 505T244 520Q271 520 295 513T344 490Q356 481 366 472T384 451V686H500ZM384 205V315Q384 337 376 360T355 400Q339 419 320 427T277 436Q247 436 226 423T189 384Q176 361 170 330T163 258Q163 220 169 186T188 129Q202 100 224 87T274 74Q299 74 321 85T357 117Q368 133 376 158T384 205Z"  />
<glyph unicode="e" horiz-adv-x="562" d="M406 162L517 148Q505 110 484 81T433 32Q403 11 365 1T286 -10Q234 -10 185 9T105 62Q74 93 56 143T37 253Q37 318 59 373T127 465Q160 493 199 506T282 520Q342 520 392 496T474 429Q499 394 511 348T525 256V233H163Q162 208 166 185T180 144Q196 109 225 91T290 74Q316 74 338 83T379 111Q389 122 396 134T406 162ZM166 309H399Q399 331 393 353T377 393Q362 414 338 426T287 440Q259 439 235 428T196 397Q181 379 173 356T166 309Z"  />
<glyph unicode="f" horiz-adv-x="354" d="M359 691V605Q343 607 325 608T294 610Q272 610 257 605T233 591Q223 581 219 567T215 532V505H336V419H215V0H99V419H15V505H99V519Q99 574 109 606T144 661Q163 679 191 687T269 696Q295 696 315 695T359 691Z"  />
<glyph unicode="g" horiz-adv-x="544" d="M530 600L528 513H515Q491 512 491 512T492 513Q464 512 449 501T428 467Q452 445 466 414T481 346Q481 279 429 231T288 182Q277 182 267 182T246 185Q220 188 216 188T209 189Q197 189 188 186T172 178Q165 173 162 166T159 149Q159 131 172 121T215 110L336 105Q410 101 449 89T511 53Q525 36 534 13T543 -34Q542 -73 522 -104T466 -155Q437 -169 390 -177T276 -187Q216 -186 170 -179T93 -156Q56 -137 40 -113T23 -57Q22 -19 43 7T99 45Q77 58 64 79T51 127Q51 145 56 161T74 190Q85 203 99 211T130 224V226Q94 246 76 277T58 352Q58 392 73 423T122 478Q152 500 188 510T269 520Q298 520 323 516T372 503Q375 526 386 545T412 578Q425 589 442 595T484 602Q510 602 514 602T522 601L530 600ZM270 255Q294 254 310 261T339 280Q350 292 357 312T365 352Q365 373 358 391T338 422Q324 434 307 440T271 447Q253 447 241 443T216 432Q196 419 185 399T174 351Q174 330 181 310T202 278Q213 266 230 260T270 255ZM311 10L183 16Q159 10 145 -4T130 -38Q130 -58 143 -73T181 -97Q200 -104 226 -107T283 -111Q330 -111 362 -105T411 -85Q420 -77 425 -66T432 -43Q432 -18 409 -6T311 10Z"  />
<glyph unicode="h" horiz-adv-x="572" d="M186 686V427Q213 473 254 496T343 520Q379 520 410 508T461 476Q481 454 491 422T502 337V0H386V321Q386 359 382 376T368 407Q357 421 341 427T306 434Q287 434 272 429T244 415Q214 395 200 364T186 280V0H70V686H186Z"  />
<glyph unicode="i" horiz-adv-x="260" d="M188 510V0H72V510H188ZM190 689V585H70V689H190Z"  />
<glyph unicode="j" horiz-adv-x="266" d="M194 510V8Q194 -54 181 -90T141 -146Q123 -159 98 -166T37 -174Q13 -173 -7 -172T-51 -167V-78Q-38 -80 -23 -81T5 -83Q25 -83 40 -76T65 -57Q71 -47 74 -31T78 9V510H194ZM196 689V585H76V689H196Z"  />
<glyph unicode="k" horiz-adv-x="537" d="M186 686V270L396 510H511L354 333L530 0H406L275 254L186 152V0H70V686H186Z"  />
<glyph unicode="l" horiz-adv-x="256" d="M186 686V0H70V686H186Z"  />
<glyph unicode="m" horiz-adv-x="858" d="M186 0H70V510H178V420H179Q200 466 241 493T331 520Q363 520 389 510T436 478Q449 463 458 447T472 413Q495 463 538 491T634 520Q669 520 699 508T749 475Q767 454 777 424T788 351V0H672V322Q672 361 668 377T656 406Q646 420 631 427T594 434Q573 434 555 425T521 399Q503 378 495 353T487 297V0H371V322Q371 357 367 374T352 406Q340 421 326 427T293 434Q272 434 254 427T221 404Q203 386 194 361T186 297V0Z"  />
<glyph unicode="n" horiz-adv-x="572" d="M186 0H70V510H178V423H180Q206 471 248 495T341 520Q373 520 405 509T458 478Q479 456 490 423T502 346V0H386V321Q385 358 381 376T366 409Q355 421 340 427T304 434Q281 434 262 426T228 404Q205 382 196 354T186 284V0Z"  />
<glyph unicode="o" horiz-adv-x="562" d="M37 255Q37 314 57 367T116 458Q148 489 189 504T281 520Q330 519 371 504T446 458Q484 421 504 368T525 255Q525 195 505 142T446 52Q413 20 372 5T281 -10Q231 -10 190 5T116 52Q77 88 57 141T37 255ZM163 255Q163 204 173 168T201 111Q216 92 236 83T281 74Q304 74 324 83T361 111Q377 131 388 167T399 255Q398 305 388 341T361 399Q345 417 325 426T281 436Q257 436 237 427T201 399Q184 378 174 342T163 255Z"  />
<glyph unicode="p" horiz-adv-x="569" d="M186 -164H70V510H178V422L180 423Q199 468 242 494T332 520Q375 520 410 504T471 457Q502 419 517 370T532 259Q532 198 518 149T477 65Q448 26 410 8T328 -10Q304 -10 280 -4T239 14Q223 23 210 38T189 72H186V-164ZM186 312V203Q186 173 192 152T214 112Q229 92 249 83T294 74Q320 74 341 87T379 129Q393 153 399 183T406 257Q406 299 400 330T379 386Q364 410 343 423T294 436Q268 436 247 425T212 397Q200 382 193 359T186 312Z"  />
<glyph unicode="q" horiz-adv-x="569" d="M499 -164H383V76H381Q374 59 363 46T338 22Q317 7 291 -1T236 -10Q189 -10 152 9T90 64Q64 99 50 150T37 259Q37 320 53 371T103 457Q131 487 168 503T252 520Q284 520 310 511T359 487Q373 476 384 463T404 434L436 508H499V-164ZM383 216V308Q382 329 377 349T362 386Q347 409 325 422T275 436Q248 436 227 423T190 385Q176 363 169 332T163 258Q162 216 168 183T187 129Q201 101 222 88T272 74Q299 74 323 89T361 128Q371 145 376 170T383 216Z"  />
<glyph unicode="r" horiz-adv-x="359" d="M70 510H174V395H176Q179 419 190 441T222 482Q241 500 263 509T317 520Q328 520 333 520T345 519V411Q339 411 334 411T324 412Q288 412 262 400T217 363Q201 341 194 312T186 245V0H70V510Z"  />
<glyph unicode="s" horiz-adv-x="494" d="M447 391L349 372Q343 385 335 395T317 414Q299 427 279 433T235 440Q213 440 196 436T168 423Q156 414 151 403T145 379Q145 354 163 341T220 322L297 310Q346 302 377 289T429 257Q448 237 458 210T469 152Q469 116 455 87T409 34Q379 12 337 1T244 -10Q196 -10 155 0T87 28Q59 45 38 73T7 138L110 155Q114 138 122 124T144 100Q161 85 188 78T245 70Q272 70 293 75T328 89Q339 97 345 110T353 138Q353 163 335 178T268 202L193 215Q151 222 120 235T68 269Q48 287 39 312T29 365Q28 399 44 429T87 480Q113 500 152 510T243 520Q293 520 328 509T393 473Q412 456 425 435T447 391Z"  />
<glyph unicode="t" horiz-adv-x="362" d="M210 657V510H320V424H210V164Q210 140 214 125T229 100Q237 91 249 87T283 83Q293 83 306 83T334 87V-2Q314 -5 293 -7T252 -10Q210 -10 179 -1T129 30Q110 49 102 76T94 156V424H10V510H94L105 648L210 657Z"  />
<glyph unicode="u" horiz-adv-x="570" d="M500 510V0H392V95H390Q380 72 366 53T333 20Q312 4 287 -3T236 -10Q200 -10 172 0T123 32Q97 57 83 93T70 185V510H186V198Q186 163 191 142T207 109Q217 96 234 89T272 82Q295 82 317 93T356 127Q369 145 376 169T384 229V510H500Z"  />
<glyph unicode="v" horiz-adv-x="481" d="M474 510L295 0H191L7 510H133L255 142H257L380 510H474Z"  />
<glyph unicode="w" horiz-adv-x="706" d="M695 510L540 0H450L353 343L352 344L259 0H169L11 510H132L225 178L227 172L318 510H410L504 172H506L603 510H695Z"  />
<glyph unicode="x" horiz-adv-x="486" d="M21 510H157L251 351L349 510H455L306 279L483 0H347L231 192L109 0H3L177 265L21 510Z"  />
<glyph unicode="y" horiz-adv-x="470" d="M470 510L270 -43Q256 -80 242 -102T210 -141Q189 -159 164 -168T104 -178Q86 -178 67 -176T27 -171V-82Q44 -84 64 -86T98 -88Q132 -88 153 -68T186 -8L190 7L7 510H137L253 157L374 510H470Z"  />
<glyph unicode="z" horiz-adv-x="450" d="M422 510V445L163 86H425V0H25V78L278 424H46V510H422Z"  />
<glyph unicode="{" horiz-adv-x="360" d="M311 696V626H280Q263 625 252 622T235 613Q229 607 226 599T224 563V403Q224 354 203 322T134 271V263Q181 243 202 211T224 131V-29Q224 -56 226 -64T235 -79Q241 -85 252 -88T280 -92H311V-162H250Q224 -162 204 -157T167 -140Q145 -124 136 -103T126 -37V124Q126 169 119 185T99 213Q88 221 73 226T46 232H38V302H46Q62 301 79 308T106 327Q116 338 121 353T126 410V571Q126 615 135 636T167 674Q183 685 203 690T250 696H311Z"  />
<glyph unicode="|" horiz-adv-x="280" d="M185 686V0H95V686H185Z"  />
<glyph unicode="}" horiz-adv-x="360" d="M49 696H110Q135 696 155 691T193 674Q214 658 223 637T234 571V410Q234 369 238 354T254 327Q263 316 280 309T314 302H322V232H314Q301 232 286 227T261 213Q247 201 241 185T234 124V-37Q233 -81 224 -102T193 -140Q176 -151 156 -156T110 -162H49V-92H80Q96 -92 107 -89T125 -79Q130 -73 133 -65T136 -29V131Q135 179 156 211T226 263V271Q178 290 157 322T136 403V563Q136 590 133 598T125 613Q118 619 107 622T80 626H49V696Z"  />
<glyph unicode="~" horiz-adv-x="714" d="M124 242L64 276Q77 301 96 327T130 367Q150 385 176 395T236 406Q257 406 280 400T368 371L424 350Q439 344 456 341T490 338Q520 338 540 350T590 400L650 366Q637 344 622 323T595 290Q571 266 543 254T475 242Q451 242 428 246T348 274L289 297Q273 303 254 307T223 311Q194 311 171 294T124 242Z"  />
<glyph unicode="&#xA0;" horiz-adv-x="233" />
<glyph unicode="&#xA4;" horiz-adv-x="522" d="M449 342Q449 316 442 292T420 246L472 193L413 133L360 186Q340 170 316 162T261 154Q229 154 205 162T162 186L109 133L50 193L102 246Q87 267 80 291T73 342Q73 367 80 391T102 438L50 491L109 551L162 498Q181 513 205 521T261 530Q292 529 316 521T360 498L413 551L472 491L420 438Q434 416 441 392T449 342ZM261 240Q302 240 332 270T363 342Q363 383 333 413T261 444Q219 444 189 414T159 342Q159 300 189 270T261 240Z"  />
<glyph unicode="&#xA6;" horiz-adv-x="280" d="M185 275V0H95V275H185ZM185 686V411H95V686H185Z"  />
<glyph unicode="&#xA7;" horiz-adv-x="582" d="M508 566L416 549Q400 581 368 599T294 618Q250 618 225 598T200 553Q200 523 222 502T317 458L372 440Q451 413 486 378T521 287Q521 249 502 214T448 148Q487 127 512 91T537 8Q537 -72 471 -125T297 -179Q211 -179 148 -142T55 -30L163 -13Q181 -55 218 -76T301 -99Q353 -99 389 -74T425 -12Q425 17 403 39T314 81L252 99Q141 130 107 169T73 263Q72 307 96 345T158 410Q123 430 105 463T87 535Q87 606 141 651T291 696Q372 695 426 663T508 566ZM315 349L239 377Q211 363 194 340T177 293Q177 268 194 248T286 203L358 178Q384 191 400 214T416 264Q416 292 394 310T315 349Z"  />
<glyph unicode="&#xA9;" horiz-adv-x="792" d="M36 336Q36 407 62 472T142 591Q193 641 258 668T396 696Q467 696 532 669T650 591Q702 538 729 473T756 336Q756 264 729 199T650 81Q598 30 533 3T396 -24Q324 -23 259 3T142 81Q89 133 63 198T36 336ZM100 336Q99 277 122 220T187 122Q227 80 282 57T396 34Q454 34 509 57T605 122Q645 163 668 220T692 336Q692 394 669 451T605 550Q564 591 509 614T396 638Q337 638 282 615T187 550Q146 508 123 451T100 336ZM477 278L560 269Q557 240 545 215T515 171Q492 147 463 135T396 123Q356 123 325 134T268 174Q241 203 228 244T214 336Q214 389 229 430T271 500Q294 524 326 536T397 549Q427 549 453 540T499 517Q518 501 531 481T561 399L478 390Q459 445 459 445T452 455Q441 468 427 475T393 483Q373 483 359 475T334 449Q321 430 315 404T309 337Q309 302 314 276T332 231Q344 210 361 201T399 191Q417 191 433 200T462 230Q469 241 472 253T477 278Z"  />
<glyph unicode="&#xAB;" horiz-adv-x="365" d="M126 257L179 114H125L39 257L125 400H179L126 257ZM266 257L319 114H265L179 257L265 400H319L266 257Z"  />
<glyph unicode="&#xAC;" horiz-adv-x="644" d="M585 418V130H492V325H60V418H585Z"  />
<glyph unicode="&#xAD;" horiz-adv-x="266" d="M246 310V216H20V310H246Z"  />
<glyph unicode="&#xAE;" horiz-adv-x="792" d="M36 336Q36 407 62 472T142 591Q193 641 258 668T396 696Q467 696 532 669T650 591Q702 538 729 473T756 336Q756 264 729 199T650 81Q598 30 533 3T396 -24Q324 -23 259 3T142 81Q89 133 63 198T36 336ZM100 336Q99 277 122 220T187 122Q227 80 282 57T396 34Q454 34 509 57T605 122Q645 163 668 220T692 336Q692 394 669 451T605 550Q564 591 509 614T396 638Q337 638 282 615T187 550Q146 508 123 451T100 336ZM226 543H419Q461 542 486 535T533 512Q554 495 564 472T575 418Q575 380 560 358T499 310L574 129H482L415 297H315V129H226V543ZM315 362H407Q444 361 463 376T484 418Q483 430 479 441T467 461Q458 469 444 473T413 478H315V362Z"  />
<glyph unicode="&#xB0;" horiz-adv-x="439" d="M70 546Q70 608 113 652T220 696Q282 696 326 652T370 546Q370 483 326 440T220 396Q157 396 114 439T70 546ZM140 546Q140 513 163 490T220 466Q252 466 276 489T300 546Q300 578 276 602T220 626Q187 626 164 602T140 546Z"  />
<glyph unicode="&#xB1;" horiz-adv-x="645" d="M276 651H369V439H581V346H369V134H276V346H64V439H276V651ZM64 0V93H580V0H64Z"  />
<glyph unicode="&#xB4;" horiz-adv-x="384" d="M300 743L334 667L111 581L89 631L300 743Z"  />
<glyph unicode="&#xB5;" horiz-adv-x="570" d="M489 510V0H382V95L380 96Q359 48 317 23T221 -2Q211 -2 201 -1T177 6V-164H61V510H177V199Q177 139 196 111T258 83Q307 83 340 122T373 231V510H489Z"  />
<glyph unicode="&#xB6;" horiz-adv-x="567" d="M527 686V616H466V-179H394V616H315V-179H243V227Q209 228 177 239T120 271Q83 299 60 347T37 452Q37 499 54 544T103 622Q134 654 174 670T288 686H527Z"  />
<glyph unicode="&#xB7;" horiz-adv-x="284" d="M74 136H210V0H74V136Z"  />
<glyph unicode="&#xBB;" horiz-adv-x="365" d="M99 257L46 400H100L186 257L100 114H46L99 257ZM239 257L186 400H240L326 257L240 114H186L239 257Z"  />
<glyph unicode="&#x401;" horiz-adv-x="576" d="M77 686H538V586H203V404H470V308H203V100H544V0H77V686ZM255 844V736H145V844H255ZM463 844V736H353V844H463Z"  />
<glyph unicode="&#x402;" horiz-adv-x="730" d="M25 686H507V586H319V391Q355 401 394 407T472 413Q579 413 634 357T690 206Q690 102 634 46T475 -10Q452 -10 427 -7T376 3L394 98Q408 93 422 92T451 90Q505 90 534 115T564 200Q564 252 534 282T443 313Q416 313 383 307T319 291V0H193V586H25V686Z"  />
<glyph unicode="&#x403;" horiz-adv-x="514" d="M77 686H504V586H203V0H77V686ZM360 895L394 819L171 734L149 783L360 895Z"  />
<glyph unicode="&#x404;" horiz-adv-x="638" d="M594 489L475 467Q459 526 417 561T324 596Q257 596 217 544T176 403H398V305H176Q173 217 213 154T333 90Q384 90 423 123T477 210L598 187Q579 97 509 44T334 -10Q197 -10 119 85T40 351Q40 512 113 604T321 696Q420 696 492 644T594 489Z"  />
<glyph unicode="&#x405;" horiz-adv-x="603" d="M551 528L441 496Q435 516 424 533T398 563Q377 579 349 587T289 596Q232 595 202 571T172 508Q172 476 197 456T277 424L370 402Q432 387 459 375T506 347Q535 322 554 285T573 204Q573 157 551 115T494 45Q460 19 412 5T306 -10Q246 -10 195 4T105 48Q70 73 46 109T10 188L127 210Q136 180 153 157T194 120Q217 104 244 97T305 90Q372 90 406 116T441 183Q441 215 415 241T337 281L236 305Q202 313 168 327T112 360Q81 384 64 418T46 495Q46 542 66 582T125 651Q157 673 201 684T297 696Q347 695 394 682T476 643Q502 622 521 592T551 528Z"  />
<glyph unicode="&#x406;" horiz-adv-x="280" d="M203 686V0H77V686H203Z"  />
<glyph unicode="&#x407;" horiz-adv-x="320" d="M223 686V0H97V686H223ZM300 844V736H200V844H300ZM120 844V736H20V844H120Z"  />
<glyph unicode="&#x408;" horiz-adv-x="393" d="M316 686V235Q316 164 307 126T276 60Q249 24 207 7T107 -10Q82 -10 56 -8T0 0V100Q19 95 39 93T80 90Q109 90 128 97T162 119Q175 133 182 155T190 225V686H316Z"  />
<glyph unicode="&#x409;" horiz-adv-x="1038" d="M594 686V411H747Q811 410 850 400T919 367Q950 341 969 301T988 209Q988 160 973 121T933 56Q905 27 869 14T768 0H468V586H275Q274 511 271 439T263 319Q252 211 230 142T170 37Q148 16 122 5T61 -6Q46 -6 37 -5T20 0V104Q24 102 27 102T35 102Q45 102 54 103T71 109Q101 123 120 167T151 296Q158 354 162 451T167 645V686H594ZM594 311V100H736Q765 99 786 105T822 127Q835 139 843 158T852 200Q852 226 844 247T822 283Q806 297 784 304T729 311H594Z"  />
<glyph unicode="&#x40A;" horiz-adv-x="1041" d="M597 686V411H750Q814 410 853 400T922 367Q953 341 971 301T991 209Q990 160 976 121T936 56Q908 27 872 14T771 0H471V309H203V0H77V686H203V409H471V686H597ZM597 311V100H739Q768 99 789 105T825 127Q838 139 846 158T855 200Q855 226 847 247T825 283Q809 297 787 304T732 311H597Z"  />
<glyph unicode="&#x40B;" horiz-adv-x="739" d="M25 686H507V586H319V391Q355 402 392 407T472 413Q533 413 575 397T644 350Q667 323 678 288T689 195V0H563V181Q562 227 555 246T533 280Q516 295 492 304T443 313Q417 313 383 307T319 291V0H193V586H25V686Z"  />
<glyph unicode="&#x40C;" horiz-adv-x="636" d="M203 409H273Q298 409 311 412T338 425Q353 435 363 451T383 493Q391 520 398 552T414 605Q422 626 434 642T466 671Q482 681 501 686T548 692Q558 692 567 691T588 687V597H576Q545 596 534 587T515 555Q506 530 495 486T472 420Q458 397 439 384T397 367V364Q432 359 456 343T499 299Q508 284 515 264T532 219Q559 130 559 131T560 129Q567 106 579 98T614 90Q615 90 616 90T621 91V0Q607 -3 594 -4T568 -6Q531 -6 506 5T464 39Q453 52 444 74T424 138Q401 222 397 234T388 257Q372 287 347 298T278 309H203V0H77V686H203V409ZM401 895L435 819L212 734L190 783L401 895Z"  />
<glyph unicode="&#x40E;" horiz-adv-x="582" d="M10 686H146L318 320H319L464 686H576L369 186Q341 120 324 90T287 41Q260 15 231 4T157 -7Q137 -6 122 -5T91 0V100Q105 96 117 95T138 93Q160 92 178 98T211 115Q223 125 234 143T252 183L10 686ZM360 857H462Q459 830 447 806T414 764Q390 744 358 736T286 727Q246 727 214 735T158 764Q136 781 124 805T110 857H212Q212 845 216 834T229 816Q238 806 252 802T286 798Q305 798 319 802T343 816Q350 823 354 834T360 857Z"  />
<glyph unicode="&#x40F;" horiz-adv-x="610" d="M72 686H198V100H458V686H584V0H386V-168H270V0H72V686Z"  />
<glyph unicode="&#x410;" horiz-adv-x="587" d="M364 686L584 0H450L395 178H169L115 0H5L224 686H364ZM369 274L282 558L194 274H369Z"  />
<glyph unicode="&#x411;" horiz-adv-x="654" d="M539 686V586H203V411H363Q427 410 466 400T535 367Q566 341 584 301T604 209Q604 160 589 121T549 56Q521 27 485 14T384 0H77V686H539ZM203 311V100H352Q381 99 402 105T438 127Q451 139 459 158T468 200Q467 226 460 247T438 283Q422 297 400 304T345 311H203Z"  />
<glyph unicode="&#x412;" horiz-adv-x="647" d="M77 686H370Q424 686 462 676T528 647Q557 625 572 592T588 517Q588 481 576 452T544 404Q531 391 511 380T470 362V360Q492 355 512 346T549 324Q579 299 594 265T609 189Q609 146 593 110T547 48Q517 22 477 11T377 0H77V686ZM203 586V404H329Q367 403 390 410T429 431Q443 443 450 460T459 499Q459 521 451 537T426 566Q411 575 390 580T337 586H203ZM203 308V100H348Q376 100 399 106T438 125Q453 137 463 158T473 203Q473 224 465 242T444 275Q426 292 405 299T340 308H203Z"  />
<glyph unicode="&#x413;" horiz-adv-x="514" d="M77 686H504V586H203V0H77V686Z"  />
<glyph unicode="&#x414;" horiz-adv-x="679" d="M180 686H585V100H655V-148H539V0H132V-148H16V100H61Q121 213 150 347T180 640V686ZM282 586L280 537Q274 405 247 294T178 100H459V586H282Z"  />
<glyph unicode="&#x415;" horiz-adv-x="576" d="M77 686H538V586H203V404H470V308H203V100H544V0H77V686Z"  />
<glyph unicode="&#x416;" horiz-adv-x="908" d="M514 686V409H550Q588 409 613 428T653 487Q663 518 672 557T692 618Q700 637 711 651T736 674Q750 683 770 687T815 692Q827 692 838 691T861 686V596H850Q820 595 807 584T786 550Q780 533 774 508T762 464Q754 443 743 424T719 394Q710 386 698 380T674 369V366Q703 362 729 345T776 300Q782 290 788 278T801 250Q816 210 828 165T850 109Q857 99 867 95T892 90H898V0Q888 -3 880 -4T856 -6Q810 -5 783 6T737 46Q728 58 720 74T683 194Q662 263 638 285T550 309H514V0H394V309H358Q294 309 270 286T225 194Q195 91 187 75T171 46Q151 18 124 6T52 -6Q36 -5 28 -4T10 0V90H16Q30 90 40 94T58 109Q67 120 79 165T107 250Q113 265 119 277T132 300Q151 328 177 345T234 366V369Q221 373 209 379T189 394Q175 405 165 422T147 462Q144 469 142 477T137 496Q127 532 125 538T122 550Q113 573 100 584T58 596H47V686Q58 689 69 690T93 692Q117 692 137 688T172 674Q184 665 195 651T216 618Q225 596 234 557T255 487Q268 447 293 428T358 409H394V686H514Z"  />
<glyph unicode="&#x417;" horiz-adv-x="645" d="M168 485L62 510Q69 554 98 593T170 657Q201 675 239 685T326 696Q379 696 421 686T497 655Q536 629 556 594T577 517Q577 458 542 416T450 363V361Q477 358 504 346T550 318Q571 297 583 265T595 201Q595 153 575 112T522 44Q489 18 440 4T322 -10Q255 -10 210 3T133 41Q102 64 79 102T46 186L160 210Q166 187 177 166T203 132Q225 110 255 100T322 90Q358 89 382 97T426 125Q442 140 450 159T459 203Q459 255 424 281T323 307H230V403H320Q351 403 374 408T415 427Q430 439 439 458T449 502Q448 520 442 535T422 565Q406 579 384 587T330 596Q292 595 259 583T205 547Q197 538 189 524T168 485Z"  />
<glyph unicode="&#x418;" horiz-adv-x="681" d="M77 686H203V283Q203 267 202 246T199 208Q202 219 210 235T225 262L478 638V686H604V0H478V405Q478 423 479 445T482 486Q472 463 466 452T455 432L203 57V0H77V686Z"  />
<glyph unicode="&#x419;" horiz-adv-x="681" d="M77 686H203V283Q203 267 202 246T199 208Q202 219 210 235T225 262L478 638V686H604V0H478V405Q478 423 479 445T482 486Q472 463 466 452T455 432L203 57V0H77V686ZM165 857H267Q267 828 287 813T341 797Q373 797 393 812T415 857H517Q511 792 464 760T341 727Q265 727 218 759T165 857Z"  />
<glyph unicode="&#x41A;" horiz-adv-x="636" d="M203 409H273Q298 409 311 412T338 425Q353 435 363 451T383 493Q391 520 398 552T414 605Q422 626 434 642T466 671Q482 681 501 686T548 692Q558 692 567 691T588 687V597H576Q545 596 534 587T515 555Q506 530 495 486T472 420Q458 397 439 384T397 367V364Q432 359 456 343T499 299Q508 284 515 264T532 219Q559 130 559 131T560 129Q567 106 579 98T614 90Q615 90 616 90T621 91V0Q607 -3 594 -4T568 -6Q531 -6 506 5T464 39Q453 52 444 74T424 138Q401 222 397 234T388 257Q372 287 347 298T278 309H203V0H77V686H203V409Z"  />
<glyph unicode="&#x41B;" horiz-adv-x="676" d="M172 686H599V0H473V586H280Q279 509 277 458T268 339Q254 203 233 137T175 37Q153 16 127 5T66 -6Q51 -6 42 -5T25 0V104Q29 102 32 102T40 102Q50 102 59 103T76 109Q107 124 125 166T156 306Q165 384 168 455T172 645V686Z"  />
<glyph unicode="&#x41C;" horiz-adv-x="851" d="M254 686L426 198H428L598 686H774V0H650V563H648L459 0H375L180 563H179V0H77V686H254Z"  />
<glyph unicode="&#x41D;" horiz-adv-x="674" d="M597 686V0H471V309H203V0H77V686H203V409H471V686H597Z"  />
<glyph unicode="&#x41E;" horiz-adv-x="676" d="M338 696Q397 696 447 678T538 622Q584 577 610 507T636 343Q636 248 610 178T538 64Q498 26 448 8T338 -10Q278 -10 228 8T138 64Q91 108 66 178T40 343Q40 437 65 507T138 622Q177 659 227 677T338 696ZM338 596Q303 596 273 581T222 533Q200 501 188 450T176 343Q175 287 187 236T222 153Q243 120 273 105T338 90Q372 90 402 105T454 153Q475 184 487 235T500 343Q500 398 488 449T454 533Q432 565 402 580T338 596Z"  />
<glyph unicode="&#x41F;" horiz-adv-x="668" d="M77 686H591V0H465V586H203V0H77V686Z"  />
<glyph unicode="&#x420;" horiz-adv-x="605" d="M77 686H315Q385 685 425 676T497 645Q535 618 557 577T580 481Q579 385 516 327T347 268H203V0H77V686ZM203 368H320Q362 368 383 375T420 397Q435 411 444 434T454 480Q454 501 445 522T421 558Q404 572 380 579T325 586H203V368Z"  />
<glyph unicode="&#x421;" horiz-adv-x="645" d="M605 460L486 446Q483 469 475 491T456 532Q434 565 406 580T341 596Q295 596 264 575T212 511Q196 479 189 441T182 348Q182 293 188 253T209 183Q229 139 263 114T342 90Q372 90 397 102T445 139Q461 158 473 184T489 242L605 227Q598 178 577 136T526 63Q490 27 447 9T348 -10Q268 -10 206 23T103 122Q74 167 60 225T46 348Q46 432 69 499T135 611Q173 652 224 674T344 696Q398 695 444 679T527 628Q561 595 580 551T605 460Z"  />
<glyph unicode="&#x422;" horiz-adv-x="482" d="M0 686H482V586H304V0H178V586H0V686Z"  />
<glyph unicode="&#x423;" horiz-adv-x="581" d="M10 686H146L318 320H319L464 686H576L369 186Q341 120 324 90T287 41Q260 15 231 4T157 -7Q137 -6 122 -5T91 0V100Q105 96 117 95T138 93Q160 92 178 98T211 115Q223 125 234 143T252 183L10 686Z"  />
<glyph unicode="&#x424;" horiz-adv-x="816" d="M345 706H471V616H480Q538 615 587 602T673 564Q719 530 747 474T776 351Q776 292 754 240T694 155Q657 123 598 105T471 88V-7H345V88Q276 86 217 104T122 155Q83 188 62 240T40 351Q39 418 67 474T143 564Q179 589 228 602T336 616H345V706ZM349 182V522H337Q303 521 272 511T219 484Q191 461 179 426T166 349Q166 296 185 259T243 202Q263 191 291 186T349 182ZM467 522V182Q495 180 523 185T573 202Q611 222 630 259T650 349Q649 391 637 426T597 484Q575 501 544 511T479 522H467Z"  />
<glyph unicode="&#x425;" horiz-adv-x="600" d="M28 686H174L309 455L444 686H566L371 368L594 0H448L291 267L128 0H6L229 357L28 686Z"  />
<glyph unicode="&#x426;" horiz-adv-x="695" d="M77 686H203V100H467V686H593V100H665V-146H549V0H77V686Z"  />
<glyph unicode="&#x427;" horiz-adv-x="632" d="M55 686H181V490Q180 452 186 436T204 408Q216 395 237 389T310 383Q335 382 362 384T429 394V686H555V0H429V294Q392 288 356 286T287 283Q215 283 179 291T118 319Q88 340 71 379T55 476V686Z"  />
<glyph unicode="&#x428;" horiz-adv-x="936" d="M77 686H203V100H405V686H531V100H733V686H859V0H77V686Z"  />
<glyph unicode="&#x429;" horiz-adv-x="961" d="M77 686H203V100H405V686H531V100H733V686H859V100H931V-146H815V0H77V686Z"  />
<glyph unicode="&#x42A;" horiz-adv-x="745" d="M306 686V411H459Q523 411 562 400T631 367Q662 341 681 301T700 209Q700 160 685 121T645 56Q617 27 581 14T480 0H180V586H-10V686H306ZM306 311V100H448Q477 99 498 105T534 127Q547 139 555 158T564 200Q564 226 556 247T534 283Q518 297 496 304T441 311H306Z"  />
<glyph unicode="&#x42B;" horiz-adv-x="869" d="M72 686H198V411H346Q410 410 449 400T518 367Q549 341 568 301T587 209Q586 160 572 121T532 56Q504 27 468 14T367 0H72V686ZM198 311V100H335Q364 99 385 105T421 127Q434 139 442 158T451 200Q451 226 443 247T421 283Q405 297 383 304T328 311H198ZM792 686V0H666V686H792Z"  />
<glyph unicode="&#x42C;" horiz-adv-x="642" d="M72 686H198V411H351Q415 410 454 400T523 367Q554 341 573 301T592 209Q592 160 577 121T537 56Q509 27 473 14T372 0H72V686ZM198 311V100H340Q369 99 390 105T426 127Q439 139 447 158T456 200Q455 226 448 247T426 283Q410 297 388 303T333 311H198Z"  />
<glyph unicode="&#x42D;" horiz-adv-x="638" d="M240 402H462Q461 436 452 474T426 537Q405 566 376 581T314 596Q282 596 255 584T206 547Q190 529 179 509T163 467L44 489Q56 531 77 567T126 628Q163 662 211 679T317 696Q382 696 433 675T521 614Q557 573 577 506T598 351Q598 276 579 207T530 95Q492 42 434 16T304 -10Q250 -10 204 4T120 51Q88 77 68 112T40 187L161 210Q166 191 175 174T198 141Q220 115 245 102T305 90Q348 90 381 110T436 172Q448 197 455 232T462 306H240V402Z"  />
<glyph unicode="&#x42E;" horiz-adv-x="943" d="M203 409H311Q317 466 342 525T407 622Q444 657 497 676T605 696Q658 696 711 677T803 622Q851 576 877 498T903 343Q903 265 877 187T803 64Q766 28 712 9T605 -10Q552 -10 499 9T410 64Q368 104 342 173T311 309H203V0H77V686H203V409ZM605 90Q640 90 669 106T721 154Q743 186 755 236T767 343Q767 398 755 448T721 532Q699 563 670 579T605 596Q569 596 540 580T489 532Q466 499 455 449T443 343Q443 230 484 160T605 90Z"  />
<glyph unicode="&#x42F;" horiz-adv-x="646" d="M569 686V0H443V283H326L172 0H30L205 295Q175 300 148 313T102 344Q75 368 63 403T50 482Q49 530 67 569T120 637Q150 661 191 673T301 686H569ZM443 586H305Q274 586 251 581T213 565Q194 552 185 533T176 484Q176 459 184 440T208 408Q223 394 245 389T301 383H443V586Z"  />
<glyph unicode="&#x430;" horiz-adv-x="569" d="M162 361L53 375Q62 416 85 445T143 493Q168 506 204 513T289 520Q338 519 376 511T441 484Q472 461 487 425T503 325V109Q502 88 505 59T514 0H398Q393 20 391 41T387 87Q362 39 319 15T217 -10Q133 -10 85 32T37 144Q36 189 59 224T126 282Q158 298 211 308T330 320L387 321V338Q387 359 383 378T369 410Q357 424 337 432T282 440Q257 439 239 436T206 425Q188 415 177 398T162 361ZM387 248L334 247Q305 246 277 243T231 233Q198 221 181 199T163 145Q163 131 168 119T184 98Q195 87 213 81T254 74Q282 74 309 86T354 121Q369 139 378 167T387 222V248Z"  />
<glyph unicode="&#x431;" horiz-adv-x="578" d="M511 700V604Q486 592 462 585T397 570Q261 546 263 546T263 547Q229 538 207 524T167 487Q151 465 141 437T127 383H129Q155 433 201 459T320 486Q364 486 398 475T461 441Q498 409 519 360T541 249Q541 193 525 146T477 62Q444 26 401 8T293 -10Q234 -10 192 8T117 63Q78 105 61 163T44 297Q43 391 63 462T131 580Q154 603 183 619T250 646Q259 648 269 650T394 672Q437 679 461 685T511 700ZM289 406Q264 406 245 397T209 371Q190 350 180 318T170 244Q170 200 179 166T208 111Q224 91 245 83T292 74Q322 74 342 82T378 110Q396 131 405 164T415 246Q415 286 406 319T377 374Q361 390 341 398T289 406Z"  />
<glyph unicode="&#x432;" horiz-adv-x="576" d="M70 510H325Q367 509 396 504T447 485Q472 468 484 444T498 387Q498 362 490 342T466 305Q453 292 436 283T399 272V270Q424 267 449 257T491 232Q508 215 517 193T526 144Q526 109 513 80T473 31Q450 14 422 7T342 0H70V510ZM186 436V300H292Q318 300 332 304T358 321Q367 330 372 342T378 371Q378 386 373 398T356 421Q346 428 334 431T297 436H186ZM186 226V74H310Q334 74 350 79T378 95Q388 104 394 118T400 151Q400 168 393 182T372 208Q359 217 343 221T306 226H186Z"  />
<glyph unicode="&#x433;" horiz-adv-x="425" d="M70 510H415V424H186V0H70V510Z"  />
<glyph unicode="&#x434;" horiz-adv-x="565" d="M140 510H472V86H527V-136H421V0H126V-136H20V86H61Q85 122 101 167T127 272Q132 309 135 362T140 469V510ZM230 424L229 385Q228 350 223 300T209 210Q201 173 191 144T167 86H356V424H230Z"  />
<glyph unicode="&#x435;" horiz-adv-x="562" d="M406 162L517 148Q505 110 484 81T433 32Q403 11 365 1T286 -10Q234 -10 185 9T105 62Q74 93 56 143T37 253Q37 318 59 373T127 465Q160 493 199 506T282 520Q342 520 392 496T474 429Q499 394 511 348T525 256V233H163Q162 208 166 185T180 144Q196 109 225 91T290 74Q316 74 338 83T379 111Q389 122 396 134T406 162ZM166 309H399Q399 331 393 353T377 393Q362 414 338 426T287 440Q259 439 235 428T196 397Q181 379 173 356T166 309Z"  />
<glyph unicode="&#x436;" horiz-adv-x="746" d="M427 510V308H458Q491 307 508 320T536 366Q542 384 548 411T556 440Q561 457 569 471T589 495Q601 505 617 509T661 514Q672 514 681 513T703 510V432L685 433Q675 433 668 430T656 418Q654 414 653 411T644 383L633 344Q626 322 618 309T598 287Q590 281 581 278T561 274V272Q586 268 603 256T634 225Q642 211 650 191T670 135Q680 103 690 93T718 82H732V0Q720 -2 709 -3T682 -4Q657 -4 641 -1T613 11Q597 20 585 38T560 96Q533 177 533 177T533 179Q523 202 508 211T462 222H427V0H319V222H284Q252 221 237 212T213 179Q212 177 212 177T186 96Q173 57 161 39T133 11Q121 3 105 0T64 -4Q48 -4 37 -3T14 0V82H28Q45 82 55 92T76 135Q87 171 95 191T112 225Q124 244 141 256T185 272V274Q174 274 165 277T148 287Q135 295 127 308T113 344L102 383Q94 408 93 411T90 418Q84 426 77 429T61 433L43 432V510Q54 512 63 513T85 514Q112 514 128 510T157 495Q167 486 175 472T190 440Q190 438 196 411T210 366Q220 334 237 321T288 308H319V510H427Z"  />
<glyph unicode="&#x437;" horiz-adv-x="535" d="M140 350L39 372Q48 410 69 438T121 485Q148 501 184 510T265 520Q303 520 339 513T404 490Q438 471 456 443T474 382Q473 334 445 305T370 270V268Q393 265 415 255T453 230Q467 215 476 192T485 145Q485 108 466 76T417 24Q391 7 354 -1T261 -10Q201 -10 160 1T92 35Q66 54 51 83T30 143L135 161Q138 145 145 131T160 107Q174 90 196 82T253 74Q278 73 296 77T329 92Q343 102 351 116T359 150Q359 169 354 181T337 203Q324 213 305 218T254 225H201V303H254Q272 303 290 306T319 315Q335 323 343 337T352 373Q352 385 347 395T331 416Q318 426 300 430T258 436Q230 436 209 429T173 409Q160 398 151 383T140 350Z"  />
<glyph unicode="&#x438;" horiz-adv-x="568" d="M70 510H186V241Q186 222 185 208T183 180Q191 195 197 206T220 240L382 469V510H498V0H382V271Q381 285 382 302T386 333Q381 323 376 314T349 274L186 45V0H70V510Z"  />
<glyph unicode="&#x439;" horiz-adv-x="568" d="M70 510H186V241Q186 222 185 208T183 180Q191 195 197 206T220 240L382 469V510H498V0H382V271Q381 285 382 302T386 333Q381 323 376 314T349 274L186 45V0H70V510ZM131 690H225Q225 679 228 669T238 651Q245 641 256 636T284 631Q300 631 311 636T330 651Q335 658 338 668T343 690H437Q436 662 425 639T391 599Q370 583 342 575T284 567Q254 567 226 575T177 599Q154 616 143 639T131 690Z"  />
<glyph unicode="&#x43A;" horiz-adv-x="536" d="M70 510H186V308H240Q277 307 297 318T329 358Q334 371 341 396T352 432L357 447Q361 460 370 474T390 497Q401 505 417 509T452 514Q465 514 477 513T500 510V434Q497 434 494 434T487 435Q475 435 468 432T455 422Q449 415 445 403T434 368Q426 338 420 325T406 303Q394 289 379 282T344 273V271Q368 267 386 255T418 222Q424 212 429 199T447 156Q465 106 467 102T474 94Q480 87 488 85T509 82Q512 82 515 82T522 83V2Q508 -1 495 -2T469 -4Q440 -4 420 3T386 25Q374 36 365 54T344 112Q332 151 326 166T314 192Q303 208 290 215T245 222H186V0H70V510Z"  />
<glyph unicode="&#x43B;" horiz-adv-x="541" d="M129 510H471V0H355V424H223Q222 413 222 404T216 280Q211 182 198 133T164 54Q150 35 131 22T86 2Q75 0 65 -2T45 -4Q37 -4 30 -3T15 0V88Q17 87 19 87T25 88Q36 88 49 93T73 107Q92 122 103 153T121 268Q123 304 124 336T128 456L129 510Z"  />
<glyph unicode="&#x43C;" horiz-adv-x="706" d="M70 510H224L357 161L484 510H636V0H528V342Q528 344 528 346T531 415Q524 400 516 378T501 338L380 0H316L187 338Q184 344 178 362T159 415Q159 392 160 372T162 344V0H70V510Z"  />
<glyph unicode="&#x43D;" horiz-adv-x="566" d="M70 510H186V309H380V510H496V0H380V223H186V0H70V510Z"  />
<glyph unicode="&#x43E;" horiz-adv-x="562" d="M37 255Q37 314 57 367T116 458Q148 489 189 504T281 520Q330 519 371 504T446 458Q484 421 504 368T525 255Q525 195 505 142T446 52Q413 20 372 5T281 -10Q231 -10 190 5T116 52Q77 88 57 141T37 255ZM163 255Q163 204 173 168T201 111Q216 92 236 83T281 74Q304 74 324 83T361 111Q377 131 388 167T399 255Q398 305 388 341T361 399Q345 417 325 426T281 436Q257 436 237 427T201 399Q184 378 174 342T163 255Z"  />
<glyph unicode="&#x43F;" horiz-adv-x="566" d="M70 510H496V0H380V424H186V0H70V510Z"  />
<glyph unicode="&#x440;" horiz-adv-x="569" d="M186 -164H70V510H178V422L180 423Q199 468 242 494T332 520Q375 520 410 504T471 457Q502 419 517 370T532 259Q532 198 518 149T477 65Q448 26 410 8T328 -10Q304 -10 280 -4T239 14Q223 23 210 38T189 72H186V-164ZM186 312V203Q186 173 192 152T214 112Q229 92 249 83T294 74Q320 74 341 87T379 129Q393 153 399 183T406 257Q406 299 400 330T379 386Q364 410 343 423T294 436Q268 436 247 425T212 397Q200 382 193 359T186 312Z"  />
<glyph unicode="&#x441;" horiz-adv-x="503" d="M478 336L372 323Q370 342 363 363T347 398Q334 415 315 425T271 436Q245 436 225 425T190 389Q176 366 170 332T163 255Q162 210 169 175T190 120Q203 99 224 87T271 74Q293 74 311 83T345 112Q355 127 362 147T372 189L478 176Q473 138 457 103T414 43Q385 16 347 4T267 -10Q219 -10 180 4T113 47Q76 82 57 135T37 254Q37 313 52 360T96 440Q125 475 171 497T270 520Q315 520 353 505T418 464Q441 440 456 406T478 336Z"  />
<glyph unicode="&#x442;" horiz-adv-x="434" d="M6 510H428V424H275V0H159V424H6V510Z"  />
<glyph unicode="&#x443;" horiz-adv-x="470" d="M470 510L270 -43Q256 -80 242 -102T210 -141Q189 -159 164 -168T104 -178Q86 -178 67 -176T27 -171V-82Q44 -84 64 -86T98 -88Q132 -88 153 -68T186 -8L190 7L7 510H137L253 157L374 510H470Z"  />
<glyph unicode="&#x444;" horiz-adv-x="732" d="M308 686H424V510H436Q482 509 529 494T608 454Q653 418 673 368T695 253Q695 191 675 143T619 62Q585 31 535 16T424 0V-165H308V0Q247 0 197 15T113 62Q77 94 57 142T37 253Q37 318 57 368T124 454Q155 478 202 494T296 510H308V686ZM314 82V428H303Q260 427 230 411T183 365Q171 344 164 314T157 255Q157 224 164 194T186 143Q206 111 235 97T303 82H314ZM418 428V82H429Q466 81 495 96T546 143Q560 164 567 194T575 255Q575 284 568 313T549 364Q530 395 500 411T429 428H418Z"  />
<glyph unicode="&#x445;" horiz-adv-x="486" d="M21 510H157L251 351L349 510H455L306 279L483 0H347L231 192L109 0H3L177 265L21 510Z"  />
<glyph unicode="&#x446;" horiz-adv-x="590" d="M70 510H186V86H389V510H505V86H565V-136H459V0H70V510Z"  />
<glyph unicode="&#x447;" horiz-adv-x="526" d="M50 510H166V355Q165 336 168 323T177 303Q184 292 198 287T253 281Q265 281 286 282T340 287V510H456V0H340V207Q304 202 280 201T231 199Q173 199 143 206T93 231Q70 250 60 282T50 361V510Z"  />
<glyph unicode="&#x448;" horiz-adv-x="792" d="M70 510H186V86H338V510H454V86H606V510H722V0H70V510Z"  />
<glyph unicode="&#x449;" horiz-adv-x="807" d="M70 510H186V86H338V510H454V86H606V510H722V86H782V-136H676V0H70V510Z"  />
<glyph unicode="&#x44A;" horiz-adv-x="592" d="M253 510V328H381Q427 328 462 316T520 282Q540 261 551 232T562 165Q562 120 548 88T509 36Q487 18 456 9T391 0H137V424H-15V510H253ZM253 244V84H344Q370 84 384 88T410 102Q422 112 429 128T436 164Q435 185 428 201T405 229Q393 236 378 239T344 244H253Z"  />
<glyph unicode="&#x44B;" horiz-adv-x="726" d="M186 510V328H306Q352 328 387 316T445 282Q465 261 476 232T487 165Q487 120 473 88T434 36Q412 18 381 9T316 0H70V510H186ZM186 244V84H269Q295 84 309 88T335 102Q347 112 353 128T361 164Q361 185 354 201T330 229Q318 236 303 239T269 244H186ZM540 510H656V0H540V510Z"  />
<glyph unicode="&#x44C;" horiz-adv-x="525" d="M186 510V328H314Q360 328 395 316T453 282Q473 261 484 232T495 165Q494 120 480 88T442 36Q420 18 389 9T324 0H70V510H186ZM186 244V84H277Q303 84 317 88T343 102Q355 112 362 128T369 164Q368 185 361 201T338 229Q326 236 311 239T277 244H186Z"  />
<glyph unicode="&#x44D;" horiz-adv-x="530" d="M36 367Q45 400 64 427T111 475Q142 498 180 509T266 520Q316 520 356 505T429 455Q458 422 475 374T493 266Q492 210 478 159T436 70Q403 27 360 9T257 -10Q215 -10 181 -2T119 23Q88 41 64 72T30 144L140 160Q143 143 151 129T175 103Q192 87 211 81T255 74Q283 74 304 85T342 122Q353 140 360 168T367 226H199V304H367Q366 327 360 351T345 390Q331 412 309 424T258 436Q231 436 209 427T172 402Q162 391 154 378T142 351L36 367Z"  />
<glyph unicode="&#x44E;" horiz-adv-x="780" d="M186 308H262Q268 349 287 388T337 458Q367 487 407 503T499 520Q547 520 589 504T664 458Q702 421 722 368T743 255Q743 195 723 142T664 52Q631 21 589 6T499 -10Q450 -10 409 5T337 52Q305 83 286 129T262 222H186V0H70V510H186V308ZM381 255Q381 204 391 168T419 111Q434 92 454 83T499 74Q522 74 542 83T579 111Q595 131 606 167T617 255Q617 305 606 341T579 399Q563 417 543 426T499 436Q475 436 455 427T419 399Q402 378 392 342T381 255Z"  />
<glyph unicode="&#x44F;" horiz-adv-x="534" d="M464 510V0H348V190H258L160 0H30L147 206Q127 212 110 223T79 249Q59 269 50 294T41 354Q41 385 48 408T73 453Q98 484 136 497T246 510H464ZM348 426H272Q233 425 213 420T181 399Q172 389 168 376T163 347Q163 331 168 318T186 295Q198 284 216 279T261 274H348V426Z"  />
<glyph unicode="&#x451;" horiz-adv-x="562" d="M406 162L517 148Q505 110 484 81T433 32Q403 11 365 1T286 -10Q234 -10 185 9T105 62Q74 93 56 143T37 253Q37 318 59 373T127 465Q160 493 199 506T282 520Q342 520 392 496T474 429Q499 394 511 348T525 256V233H163Q162 208 166 185T180 144Q196 109 225 91T290 74Q316 74 338 83T379 111Q389 122 396 134T406 162ZM166 309H399Q399 331 393 353T377 393Q362 414 338 426T287 440Q259 439 235 428T196 397Q181 379 173 356T166 309ZM236 702V594H126V702H236ZM436 702V594H326V702H436Z"  />
<glyph unicode="&#x452;" horiz-adv-x="581" d="M193 686V618H368V546H193V400Q220 446 261 469T352 493Q387 493 417 482T469 449Q490 425 500 391T511 310V15Q510 -89 474 -131T354 -175Q332 -175 313 -173T266 -165V-79Q288 -83 300 -85T328 -87Q361 -87 378 -69T395 12V305Q395 330 392 346T382 374Q372 389 355 398T314 407Q285 407 263 396T225 363Q208 341 201 315T193 249V0H77V546H0V618H77V686H193Z"  />
<glyph unicode="&#x453;" horiz-adv-x="425" d="M70 510H415V424H186V0H70V510ZM354 743L388 667L165 581L143 631L354 743Z"  />
<glyph unicode="&#x454;" horiz-adv-x="533" d="M487 367L381 351Q367 391 337 413T265 436Q212 436 184 398T156 302H324V228H156Q155 154 185 114T268 74Q307 74 340 97T383 160L493 144Q474 73 418 32T266 -10Q147 -9 89 68T30 266Q30 388 92 454T257 520Q342 520 404 479T487 367Z"  />
<glyph unicode="&#x455;" horiz-adv-x="494" d="M447 391L349 372Q343 385 335 395T317 414Q299 427 279 433T235 440Q213 440 196 436T168 423Q156 414 151 403T145 379Q145 354 163 341T220 322L297 310Q346 302 377 289T429 257Q448 237 458 210T469 152Q469 116 455 87T409 34Q379 12 337 1T244 -10Q196 -10 155 0T87 28Q59 45 38 73T7 138L110 155Q114 138 122 124T144 100Q161 85 188 78T245 70Q272 70 293 75T328 89Q339 97 345 110T353 138Q353 163 335 178T268 202L193 215Q151 222 120 235T68 269Q48 287 39 312T29 365Q28 399 44 429T87 480Q113 500 152 510T243 520Q293 520 328 509T393 473Q412 456 425 435T447 391Z"  />
<glyph unicode="&#x456;" horiz-adv-x="260" d="M188 510V0H72V510H188ZM190 689V585H70V689H190Z"  />
<glyph unicode="&#x457;" horiz-adv-x="282" d="M199 510V0H83V510H199ZM267 693V585H172V693H267ZM110 693V585H15V693H110Z"  />
<glyph unicode="&#x458;" horiz-adv-x="266" d="M194 510V8Q194 -54 181 -90T141 -146Q123 -159 98 -166T37 -174Q13 -173 -7 -172T-51 -167V-78Q-38 -80 -23 -81T5 -83Q25 -83 40 -76T65 -57Q71 -47 74 -31T78 9V510H194ZM196 689V585H76V689H196Z"  />
<glyph unicode="&#x459;" horiz-adv-x="810" d="M471 510V328H599Q645 328 680 316T738 282Q758 261 769 232T780 165Q780 120 766 88T727 36Q705 18 674 9T609 0H355V424H223Q222 413 222 404T216 280Q211 182 198 133T164 54Q150 35 131 22T86 2Q75 0 65 -2T45 -4Q37 -4 30 -3T15 0V88Q17 87 19 87T25 88Q36 88 49 93T73 107Q92 122 103 153T121 268Q123 304 124 336T128 456L129 510H471ZM471 244V84H562Q588 84 602 88T628 102Q640 112 647 128T654 164Q653 185 646 201T623 229Q611 236 596 239T562 244H471Z"  />
<glyph unicode="&#x45A;" horiz-adv-x="835" d="M496 510V328H624Q670 328 705 316T763 282Q783 261 794 232T805 165Q804 120 790 88T752 36Q730 18 699 9T634 0H380V223H186V0H70V510H186V309H380V510H496ZM496 244V84H587Q613 84 627 88T653 102Q665 112 672 128T679 164Q679 185 672 201T648 229Q636 236 621 239T587 244H496Z"  />
<glyph unicode="&#x45B;" horiz-adv-x="581" d="M193 686V618H368V546H193V400Q220 446 261 469T352 493Q387 493 417 482T469 449Q490 425 500 391T511 310V0H395V305Q395 330 392 346T382 374Q372 389 355 398T314 407Q285 407 263 396T225 363Q208 341 201 315T193 249V0H77V546H0V618H77V686H193Z"  />
<glyph unicode="&#x45C;" horiz-adv-x="536" d="M70 510H186V308H240Q277 307 297 318T329 358Q334 371 341 396T352 432L357 447Q361 460 370 474T390 497Q401 505 417 509T452 514Q465 514 477 513T500 510V434Q497 434 494 434T487 435Q475 435 468 432T455 422Q449 415 445 403T434 368Q426 338 420 325T406 303Q394 289 379 282T344 273V271Q368 267 386 255T418 222Q424 212 429 199T447 156Q465 106 467 102T474 94Q480 87 488 85T509 82Q512 82 515 82T522 83V2Q508 -1 495 -2T469 -4Q440 -4 420 3T386 25Q374 36 365 54T344 112Q332 151 326 166T314 192Q303 208 290 215T245 222H186V0H70V510ZM381 743L415 667L192 581L170 631L381 743Z"  />
<glyph unicode="&#x45E;" horiz-adv-x="470" d="M470 510L270 -43Q256 -80 242 -102T210 -141Q189 -159 164 -168T104 -178Q86 -178 67 -176T27 -171V-82Q44 -84 64 -86T98 -88Q132 -88 153 -68T186 -8L190 7L7 510H137L253 157L374 510H470ZM88 690H182Q182 664 198 648T241 631Q267 631 283 647T300 690H394Q393 633 349 600T241 567Q176 567 132 600T88 690Z"  />
<glyph unicode="&#x45F;" horiz-adv-x="558" d="M62 508H178V86H380V508H496V0H332V-138H226V0H62V508Z"  />
<glyph unicode="&#x490;" horiz-adv-x="516" d="M77 686H399V781H506V586H203V0H77V686Z"  />
<glyph unicode="&#x491;" horiz-adv-x="425" d="M70 510H333V580H415V424H186V0H70V510Z"  />
<glyph unicode="&#x2013;" horiz-adv-x="640" d="M570 310V216H70V310H570Z"  />
<glyph unicode="&#x2014;" horiz-adv-x="1040" d="M970 310V216H70V310H970Z"  />
<glyph unicode="&#x2018;" horiz-adv-x="266" d="M67 442V549L149 686H199L138 561H189V442H67Z"  />
<glyph unicode="&#x2019;" horiz-adv-x="273" d="M199 686V579L117 442H67L128 567H77V686H199Z"  />
<glyph unicode="&#x201A;" horiz-adv-x="273" d="M199 119V12L117 -125H67L128 0H77V119H199Z"  />
<glyph unicode="&#x201C;" horiz-adv-x="442" d="M67 442V549L149 686H199L138 561H189V442H67ZM236 442V549L318 686H368L307 561H358V442H236Z"  />
<glyph unicode="&#x201D;" horiz-adv-x="442" d="M368 686V579L286 442H236L297 567H246V686H368ZM199 686V579L117 442H67L128 567H77V686H199Z"  />
<glyph unicode="&#x201E;" horiz-adv-x="442" d="M199 119V12L117 -125H67L128 0H77V119H199ZM368 119V12L286 -125H236L297 0H246V119H368Z"  />
<glyph unicode="&#x2020;" horiz-adv-x="572" d="M351 686L310 478L522 516L512 460L522 404L310 433Q313 427 316 423T354 384Q334 306 322 154T310 -118V-168H262V-118Q261 2 249 154T218 384Q251 419 254 423T262 433L50 404L60 460L50 516L262 478L221 686L286 674L351 686Z"  />
<glyph unicode="&#x2021;" horiz-adv-x="594" d="M357 686L323 503L533 542L523 485L533 427L323 460L345 405L323 345L533 383L523 326L533 269L323 301Q331 289 341 279T366 257Q349 188 337 76T322 -134L321 -168H273L272 -134Q269 -37 257 75T228 257Q241 268 251 278T271 301L61 269L71 326L61 383L271 345L249 405L271 460L61 427L71 485L61 542L271 503L237 686L297 674L357 686Z"  />
<glyph unicode="&#x2022;" horiz-adv-x="639" d="M148 343Q148 414 197 464T319 514Q390 514 440 464T490 343Q490 271 440 221T319 172Q247 172 198 221T148 343Z"  />
<glyph unicode="&#x2026;" horiz-adv-x="1032" d="M212 136V0H74V136H212ZM585 136V0H447V136H585ZM958 136V0H820V136H958Z"  />
<glyph unicode="&#x2030;" horiz-adv-x="1260" d="M669 686L253 0H173L589 686H669ZM220 693Q296 693 340 641T384 498Q384 406 340 355T220 303Q143 302 100 354T56 498Q55 589 99 640T220 693ZM220 619Q185 619 168 589T150 502Q150 445 167 415T220 385Q254 385 272 415T290 502Q290 558 272 588T220 619ZM637 384Q713 384 756 332T801 189Q801 97 757 46T637 -6Q560 -6 517 45T473 189Q473 280 516 331T637 384ZM637 310Q602 310 585 280T567 193Q567 136 584 106T637 76Q671 76 689 106T707 193Q706 249 689 279T637 310ZM1040 384Q1116 384 1160 332T1204 189Q1204 97 1160 46T1040 -6Q963 -6 920 45T876 189Q875 280 919 332T1040 384ZM1040 310Q1005 310 988 280T970 193Q969 136 987 106T1040 76Q1074 76 1092 106T1110 193Q1110 249 1092 279T1040 310Z"  />
<glyph unicode="&#x2039;" horiz-adv-x="225" d="M126 257L179 114H125L39 257L125 400H179L126 257Z"  />
<glyph unicode="&#x203A;" horiz-adv-x="225" d="M99 257L46 400H100L186 257L100 114H46L99 257Z"  />
<glyph unicode="&#x20AC;" horiz-adv-x="659" d="M619 638L581 533Q559 545 536 557T493 578Q462 590 438 596T391 602Q359 602 336 593T295 562Q278 543 266 516T251 459H554L527 385H243Q242 376 242 367T242 348Q242 340 242 332T243 316H502L475 242H249Q251 211 262 182T291 131Q311 105 338 95T402 84Q424 84 450 89T501 105Q526 115 551 130T598 164V45Q582 34 566 25T529 10Q500 0 466 -5T404 -10Q322 -10 266 23T171 122Q153 151 143 181T128 242H39L66 316H119Q118 324 118 332T118 348Q118 357 118 366T119 385H36L64 459H130Q139 505 157 544T200 611Q235 652 282 674T393 696Q433 696 474 689T557 666Q573 659 588 652T619 638Z"  />
<glyph unicode="&#x2116;" horiz-adv-x="1002" d="M214 686L509 185H511Q507 203 505 221T504 259V686H608V0H495L198 506L175 548H172Q172 538 174 529T178 518Q178 514 178 500T181 469V0H77V686H214ZM817 686Q849 685 874 673T919 639Q938 615 947 581T957 510Q956 474 948 442T923 387Q904 362 877 349T817 335Q785 335 761 346T718 378Q697 400 687 431T677 510Q677 556 687 587T718 642Q738 665 762 675T817 686ZM817 626Q799 626 787 617T767 592Q760 577 757 557T753 506Q753 477 756 460T765 431Q773 412 786 404T817 395Q832 394 845 402T866 426Q872 438 876 459T881 510Q880 537 877 557T867 592Q858 610 846 618T817 626ZM687 271H947V203H687V271Z"  />
<glyph unicode="&#x2122;" horiz-adv-x="857" d="M245 287H153V618H41V686H357V618H245V287ZM815 287H727V600L621 287H572L465 600V287H392V686H520L604 447L686 686H815V287Z"  />

</font>
</defs>
</svg>
