<?xml  version="1.0" encoding="UTF-8"?>
<!DOCTYPE svg PUBLIC "-//W3C//DTD SVG 1.0//EN" "http://www.w3.org/TR/2001/REC-SVG-20010904/DTD/svg10.dtd" >
<svg xmlns="http://www.w3.org/2000/svg" >
<metadata>
<version>1.0</version>
<id><![CDATA[ITC Franklin Gothic W10 MdCn]]></id>
<vendor>Monotype Imaging Inc.</vendor>
<credits>
<name>Fonts.com WebFonts</name>
<URL>http://webfonts.fonts.com</URL>
<role>Home of the Web fonts</role>
</credits>
<license>
<URL>http://webfonts.fonts.com/Legal</URL>
</license>
<copyright><![CDATA[Copyright (c) 1990-2001 ParaType, Inc. All Rights Reserved. Franklin Gothic is a registered trade mark of International Typeface Corporation.]]></copyright>
<trademark><![CDATA[This software is a property of ParaType. ITC Franklin Gothic is a registered trade mark of International Typeface Corporation.]]></trademark>
<licensee>
<name></name>
</licensee>
</metadata>
<defs >
<font horiz-adv-x="489" id="f914b38f-4bb4-4031-b9f8-3adb1c9fd620">
<font-face font-family="" panose-1="2 11 6 6 3 5 2 2 2 4" ascent="925" descent="-244" units-per-em="1000" alphabetic="0">
</font-face>
<missing-glyph horiz-adv-x="233" />

<glyph unicode="&#xA;" />
<glyph unicode="&#xD;" />
<glyph unicode=" " horiz-adv-x="233" />
<glyph unicode="!" horiz-adv-x="356" d="M235 126V0H120V126H235ZM248 686L212 184H144L108 686H248Z"  />
<glyph unicode="&quot;" horiz-adv-x="531" d="M397 686L381 405H308L291 686H397ZM240 686L223 405H150L134 686H240Z"  />
<glyph unicode="#" horiz-adv-x="527" d="M195 284H309L332 417H218L195 284ZM263 686L229 487H343L377 686H450L417 487H517L505 417H405L383 284H483L471 215H372L336 0H261L297 215H184L147 0H74L109 215H10L22 284H121L143 417H44L55 487H155L189 686H263Z"  />
<glyph unicode="$" horiz-adv-x="529" d="M295 104Q309 106 325 111T352 126Q362 134 372 151T383 198Q383 212 378 232T352 268Q341 277 324 283T295 292V104ZM239 591Q227 589 215 583T193 567Q182 556 176 541T170 508Q170 485 178 469T197 442Q209 431 222 426T239 420V591ZM298 741V673Q331 671 360 659T409 630Q424 617 434 602T451 572T461 548T466 535L386 501Q381 518 373 533T354 560Q346 570 332 579T295 593V403Q321 396 353 384T406 358Q418 350 431 338T455 308T473 267T481 213Q481 161 461 122T410 60Q393 47 375 39T342 27T315 22T298 20V-69H236V20Q233 20 221 22T193 28T158 41T122 62Q95 83 76 115T48 185L139 216Q143 194 152 175T173 142Q183 131 199 120T239 105V309Q213 317 183 331T134 361Q108 383 91 415T74 489Q74 525 88 564T134 631Q137 634 145 640T166 652T196 665T236 673V741H298Z"  />
<glyph unicode="%" horiz-adv-x="791" d="M615 357Q601 357 588 349T566 315Q560 295 558 270T556 206Q556 167 558 142T566 97Q567 92 570 85T579 72T593 60T615 55Q623 55 639 62T663 97Q666 106 667 119T670 148T672 178T673 206Q673 219 673 234T671 264T668 292T663 315Q655 341 641 349T615 357ZM615 418Q634 418 659 414T711 383Q729 364 739 340T755 291T762 244T763 206Q763 194 762 172T756 123T740 72T711 28Q685 3 659 -2T615 -7Q597 -7 571 -2T518 28Q500 45 490 67T475 113T469 161T467 206Q467 228 468 252T475 300T490 345T518 384Q544 410 569 414T615 418ZM599 686L265 0H191L526 686H599ZM176 631Q169 631 153 624T127 589Q125 581 122 558T118 480Q118 426 121 404T127 371Q131 356 138 348T152 336T165 331T176 330Q188 330 202 337T224 371Q227 383 229 398T233 428T234 457T235 480Q235 529 231 554T224 589Q223 593 220 600T212 614T198 626T176 631ZM176 693Q194 693 220 688T273 658Q292 640 302 615T317 565T323 516T324 477Q324 455 323 432T316 385T300 341T272 303Q246 278 221 273T176 268Q159 268 133 273T80 303Q63 319 53 340T37 385T30 433T28 480Q28 501 29 525T36 574T52 620T80 659Q106 683 132 688T176 693Z"  />
<glyph unicode="&amp;" horiz-adv-x="650" d="M256 328Q244 322 230 312T200 281Q170 241 170 187Q170 159 180 138T208 101Q226 84 243 79T281 74Q313 74 340 85T394 126L256 328ZM297 434Q329 452 348 475Q362 492 369 513T376 552Q376 563 373 577T361 602Q353 611 340 616T313 621Q299 621 289 617T271 605Q263 597 258 585T252 553Q252 530 258 512T272 477Q278 466 284 455T297 434ZM605 365Q600 342 592 308T568 236Q554 202 540 176T512 130Q532 109 547 97T586 84Q601 84 616 89V0Q602 -5 588 -7T561 -9Q518 -9 490 13T444 59Q414 30 373 9T275 -13Q240 -13 214 -7T168 9T137 27T119 43Q93 68 78 106T62 190Q62 273 120 332Q140 353 164 368T211 392Q207 398 198 413T178 449T160 494T152 542Q152 577 164 608T206 663Q249 699 315 699Q350 699 377 688T423 660Q441 643 454 616T467 553Q467 513 454 484T417 429Q387 396 342 371L459 203Q483 243 499 293Q507 318 511 340T519 383L605 365Z"  />
<glyph unicode="&apos;" horiz-adv-x="356" d="M231 686L214 405H142L125 686H231Z"  />
<glyph unicode="(" horiz-adv-x="336" d="M278 686Q254 649 236 611T202 519Q182 456 171 393T160 257Q160 187 171 122T202 -5Q219 -58 237 -97T278 -172H194Q182 -154 157 -113T109 -17Q83 46 70 114T56 257Q56 331 69 400T109 531Q119 555 131 578T154 622T176 658T194 686H278Z"  />
<glyph unicode=")" horiz-adv-x="336" d="M58 -172Q82 -134 100 -95T134 -5Q154 57 165 121T176 257Q176 302 168 369T134 519Q117 572 98 612T58 686H142Q166 651 188 612T227 531Q253 468 266 400T280 257Q280 183 267 114T227 -17Q217 -41 205 -64T182 -108T160 -145T142 -172H58Z"  />
<glyph unicode="*" horiz-adv-x="528" d="M302 686L290 550L403 625L438 557L320 504L438 451L403 382L290 458L302 321H227L238 458L125 382L90 451L208 504L90 557L125 625L238 550L227 686H302Z"  />
<glyph unicode="+" horiz-adv-x="529" d="M475 385V301H308V132H221V301H54V385H221V554H308V385H475Z"  />
<glyph unicode="&#x2c;" horiz-adv-x="249" d="M187 129V6L111 -145H62L125 0H72V129H187Z"  />
<glyph unicode="-" horiz-adv-x="301" d="M259 300V216H41V300H259Z"  />
<glyph unicode="." horiz-adv-x="249" d="M182 129V0H67V129H182Z"  />
<glyph unicode="/" horiz-adv-x="491" d="M441 686L62 -172H-16L363 686H441Z"  />
<glyph unicode="0" horiz-adv-x="527" d="M263 614Q257 614 246 613T223 603T198 579T176 532Q170 512 167 488T161 438T158 387T157 343Q157 323 157 299T160 249T166 199T176 154Q185 124 197 108T222 83T246 74T263 72Q269 72 280 73T304 83T329 107T351 154Q357 174 360 198T366 248T369 298T370 343Q370 362 370 387T367 437T361 487T351 532Q342 562 330 578T305 603T281 612T263 614ZM263 699Q276 699 293 697T330 689T369 672T407 641Q436 611 452 570T476 487T485 406T487 343Q487 278 481 230T463 146T437 86T407 45Q389 26 369 15T330 -3T294 -11T263 -13Q249 -13 232 -11T197 -3T158 14T120 45Q94 72 79 108T55 184T43 265T40 343Q40 368 41 406T51 487T75 570T120 641Q138 660 158 671T196 689T232 697T263 699Z"  />
<glyph unicode="1" horiz-adv-x="529" d="M352 693V84H463V0H121V84H241V554Q231 543 215 527T178 495Q159 481 143 472T119 457V563Q136 573 159 588T204 622Q225 640 240 657T268 693H352Z"  />
<glyph unicode="2" horiz-adv-x="529" d="M34 487Q37 504 43 523T57 562T76 600T100 634Q118 655 138 667T178 687T218 696T256 699Q284 699 319 692T388 658Q420 633 441 593T462 497Q462 434 437 386T380 299Q359 274 332 248T274 195T214 144T156 100H466L461 0H34V98Q103 156 150 201T228 278T275 331T297 361Q320 394 332 424T344 492Q344 509 340 531T320 572Q310 584 293 594T248 605Q209 605 186 583T153 534Q148 521 143 501T136 466L34 487Z"  />
<glyph unicode="3" horiz-adv-x="527" d="M39 532Q47 567 65 598T108 651Q130 670 164 684T251 699Q295 699 326 689T380 663Q415 639 433 603T452 516Q452 489 446 464T419 414Q402 392 383 380T344 361Q370 355 391 343T428 314Q451 289 460 260T470 196Q470 165 465 141T451 99T432 67T412 45Q383 19 339 3T248 -13Q194 -13 147 6T71 57Q52 77 39 107T21 172L119 195Q121 165 132 146T151 118Q172 94 196 86T240 77Q269 77 289 87T323 113Q340 133 345 156T351 200Q351 245 332 268T292 302Q276 310 253 313T213 315L169 314V398H213Q225 398 238 398T266 402T293 412T317 433Q325 442 331 459T338 503Q338 538 329 556T315 580Q304 593 286 602T243 612Q220 612 201 603T168 580Q156 567 147 548T134 510L39 532Z"  />
<glyph unicode="4" horiz-adv-x="527" d="M304 598L121 247H304V598ZM409 699V251H495V164H409V0H298V164H32V247L279 699H409Z"  />
<glyph unicode="5" horiz-adv-x="529" d="M449 686L439 586H179L168 396Q178 410 189 420T213 438Q233 451 253 455T295 460Q342 460 371 445T412 420Q423 411 435 396T459 360T477 309T485 240Q485 171 464 120T410 39Q384 16 345 2T262 -13Q218 -13 175 2T102 47Q79 70 64 101T44 164L145 189Q149 172 157 152T179 116Q196 96 216 89T260 81Q266 81 276 82T297 86T320 97T343 117Q361 140 368 173T375 233Q375 260 369 285T348 328Q334 347 314 357T264 367Q244 367 226 361T191 340Q177 328 170 316T157 291L72 309L93 686H449Z"  />
<glyph unicode="6" horiz-adv-x="529" d="M284 354Q267 354 246 348T206 319Q186 296 180 264T174 205Q174 179 183 154T209 109Q223 94 241 85T286 75Q312 75 330 85T360 113Q376 135 381 165T386 222Q386 251 379 278T355 323Q339 341 321 347T284 354ZM395 503Q393 519 387 535T370 568Q355 591 337 601T293 611Q242 611 213 573Q204 561 197 545T184 510T174 474T168 439Q166 427 165 413T164 384T162 359T161 341Q169 359 180 376T204 404Q220 419 245 430T307 442Q342 442 372 430T425 398Q451 376 473 334T496 222Q496 161 477 115T428 40Q403 17 367 2T285 -13Q270 -13 253 -11T216 -3T178 15T140 46Q113 74 97 108T71 179T60 252T57 321Q57 347 58 386T68 468T94 554T142 631Q168 660 204 679T290 699Q322 699 356 689T417 658Q443 638 462 606T490 532L395 503Z"  />
<glyph unicode="7" horiz-adv-x="529" d="M480 686V607Q453 571 421 516T358 378Q341 332 329 288T309 197T297 103T292 0H171Q171 73 182 138T209 258T241 352T269 415Q297 474 324 514T378 586H74L83 686H480Z"  />
<glyph unicode="8" horiz-adv-x="526" d="M243 307Q226 299 205 287T170 261Q148 239 143 218T138 176Q138 130 171 100Q191 82 214 76T263 70Q288 70 309 75T351 100Q372 120 377 140T383 175Q383 202 371 221T338 257Q316 274 289 287T243 307ZM278 407Q296 415 314 427T343 451Q372 481 372 527Q372 549 364 565T341 594Q324 609 307 614T270 619Q252 619 231 614T191 589Q177 573 173 557T168 527Q168 500 178 481T208 445Q224 432 242 423T278 407ZM364 370Q412 348 445 312Q468 287 479 260T491 194Q491 162 482 126T441 56Q412 26 366 7T259 -13Q211 -13 167 0T93 38Q73 55 54 88T35 174Q35 206 44 236T82 294Q99 311 122 325T162 349Q147 358 130 371T101 396Q80 419 69 450T58 514Q58 550 73 585T114 646Q139 669 177 684T269 699Q319 699 355 686T414 653Q437 633 454 601T471 527Q471 489 460 463T435 423Q424 410 404 396T364 370Z"  />
<glyph unicode="9" horiz-adv-x="527" d="M249 611Q229 611 209 603T173 574Q162 560 153 536T144 475Q144 443 152 415T177 368Q187 357 204 347T250 337Q270 337 288 345T324 373Q340 393 346 419T353 477Q353 506 345 535T317 583Q303 597 285 604T249 611ZM143 167Q145 156 152 138T171 106Q185 89 202 82T240 75Q266 75 284 85T314 110T333 139T343 164Q348 180 352 201T358 244T361 290T363 334Q356 321 344 303T318 274Q300 259 273 251T223 243Q194 243 161 255T104 289Q86 305 73 327T52 373T39 424T34 474Q34 534 55 578T109 650Q143 680 179 689T248 699Q282 699 320 689T392 644Q420 616 435 579T459 502T469 428T471 370Q471 330 467 285T453 196T426 113T382 47Q374 38 361 28T329 8T288 -7T236 -13Q201 -13 168 -3T110 28Q90 46 72 76T46 138L143 167Z"  />
<glyph unicode=":" horiz-adv-x="249" d="M182 508V377H67V508H182ZM182 129V0H67V129H182Z"  />
<glyph unicode=";" horiz-adv-x="249" d="M187 508V377H72V508H187ZM187 129V6L111 -145H62L125 0H72V129H187Z"  />
<glyph unicode="&lt;" horiz-adv-x="527" d="M486 502L151 343L486 183V80L41 299V388L486 606V502Z"  />
<glyph unicode="=" horiz-adv-x="529" d="M54 230V315H475V230H54ZM54 371V456H475V372L54 371Z"  />
<glyph unicode="&gt;" horiz-adv-x="527" d="M41 184L376 343L41 503V606L486 387V299L41 80V184Z"  />
<glyph unicode="?" horiz-adv-x="511" d="M285 123V0H173V123H285ZM40 485Q43 521 51 549T69 598T92 633T117 658Q134 672 165 685T248 699Q293 699 325 688T381 658Q392 649 403 636T424 604T439 563T445 511Q445 468 432 435T394 373Q382 359 373 351T353 335T333 319T308 295Q285 271 279 246T277 183H182Q182 216 182 233Q182 250 184 262Q188 291 199 315T233 361Q245 373 254 380T272 394T287 406T302 423Q316 442 323 466T331 512Q331 531 325 551T305 586Q282 609 242 609Q218 609 202 600T174 580Q163 568 156 552T145 520T140 490T138 466L40 485Z"  />
<glyph unicode="@" horiz-adv-x="614" d="M315 454Q298 454 287 444T269 421Q255 398 250 366T244 307Q244 290 247 270T258 236Q265 224 274 219T293 214Q310 214 320 224T337 245Q350 268 356 301T362 365Q362 397 357 413T348 435Q335 454 315 454ZM460 521L430 309Q429 304 428 294T426 274T425 254T424 241Q424 218 432 213T448 207Q465 207 477 215T500 238Q513 257 525 292T537 391Q537 468 515 518T464 594Q436 619 398 631T323 644Q273 644 233 624T164 574Q132 541 108 483T83 338Q83 309 87 278T101 215T130 154T179 99Q222 63 264 54T338 44Q433 44 521 98L543 43Q500 15 444 -1T334 -17Q283 -17 233 -3T140 41Q116 58 93 83T50 145T19 227T7 334Q7 428 37 503T119 626Q157 661 208 682T328 704Q389 704 433 687T505 646Q547 611 577 548T607 399Q607 391 606 369T600 318T582 256T546 196Q518 162 489 151T435 140Q415 140 403 146T386 158Q379 165 374 176T365 199Q360 188 353 178T336 159Q311 137 279 137Q262 137 243 143T204 172Q180 200 173 234T165 301Q165 352 179 404T227 491Q244 508 265 518T309 529Q338 529 361 512T392 466L400 521H460Z"  />
<glyph unicode="A" horiz-adv-x="509" d="M247 575L170 262H325L247 575ZM322 686L506 0H390L347 172H147L105 0H-4L194 686H322Z"  />
<glyph unicode="B" horiz-adv-x="566" d="M272 90Q286 90 309 93T354 110Q383 129 390 154T398 201Q398 207 397 218T392 243T380 269T358 292Q338 307 313 310T264 313H181V90H272ZM253 403Q273 403 300 406T342 420Q360 433 368 458T377 503Q377 524 369 545T345 579Q328 592 305 594T264 596H181V403H253ZM277 686Q317 686 355 683T423 661Q452 642 472 605T493 514Q493 470 483 445T461 407Q448 392 430 381T391 362Q415 356 433 345T466 319Q495 290 504 257T514 193Q514 158 507 132T488 86T462 54T436 33Q400 10 360 5T280 0H67V686H277Z"  />
<glyph unicode="C" horiz-adv-x="544" d="M516 217Q514 198 509 175T496 129T474 83T441 42Q420 22 385 5T295 -13Q263 -13 237 -7T190 9T154 31T127 55Q99 85 83 124T58 203T47 280T44 343Q44 364 46 401T57 482T86 567T138 641Q161 663 199 681T295 699Q338 699 371 687T428 656Q458 632 483 587T516 464L411 449Q405 488 399 517T370 572Q340 605 297 605Q271 605 252 596T219 572Q200 552 189 524T173 463T166 398T164 337Q164 317 165 289T172 230T186 170T213 120Q233 96 254 89T295 81Q323 81 341 91T374 120Q383 132 393 157T411 230L516 217Z"  />
<glyph unicode="D" horiz-adv-x="582" d="M182 94H231Q245 94 263 96T301 105T341 128T378 171Q404 211 411 258T418 347Q418 387 411 432T377 518Q349 562 313 577T231 592H182V94ZM224 686Q240 686 267 685T327 675T394 650T458 601Q473 584 487 561T513 508T531 437T538 348Q538 316 535 282T522 213T495 145T452 84Q407 35 353 18T232 0H68V686H224Z"  />
<glyph unicode="E" horiz-adv-x="475" d="M460 686V592H181V401H400V307H181V94H465V0H67V686H460Z"  />
<glyph unicode="F" horiz-adv-x="439" d="M448 686V592H181V391H395V297H181V0H67V686H448Z"  />
<glyph unicode="G" horiz-adv-x="581" d="M529 354V-5H468L454 82Q446 68 433 51T402 21Q381 5 354 -4T296 -13Q253 -13 213 0T142 42Q124 58 106 83T75 145T53 229T44 340Q44 407 53 457T78 545T112 607T149 647Q172 667 210 683T305 699Q332 699 367 692T434 662Q465 639 490 598T526 489L423 464Q421 474 416 494T405 529Q401 540 394 553T375 577T346 597T304 605Q271 605 240 588T189 521Q181 500 173 459T164 344Q164 266 173 223T193 158Q204 135 218 120T247 97T277 85T306 81Q334 81 354 91T388 119Q401 135 408 155T419 196T423 233Q423 250 423 260H300V354H529Z"  />
<glyph unicode="H" horiz-adv-x="564" d="M181 686V401H383V686H497V0H383V307H181V0H67V686H181Z"  />
<glyph unicode="I" horiz-adv-x="248" d="M181 686V0H67V686H181Z"  />
<glyph unicode="J" horiz-adv-x="318" d="M253 686V260Q253 219 252 182T243 113T222 56T180 13Q157 -2 128 -7T76 -13Q55 -13 29 -9T-17 0V94Q-5 90 12 87T50 83Q68 83 88 89T123 118Q127 125 130 135T135 161T138 201T139 260V686H253Z"  />
<glyph unicode="K" horiz-adv-x="527" d="M181 686V359L388 686H508L332 434L538 0H416L263 340L181 225V0H67V686H181Z"  />
<glyph unicode="L" horiz-adv-x="422" d="M181 686V94H424V0H67V686H181Z"  />
<glyph unicode="M" horiz-adv-x="741" d="M234 686L371 191L511 686H674V0H566V585L403 0H321L161 586V0H65V686H234Z"  />
<glyph unicode="N" horiz-adv-x="582" d="M197 686L423 191V686H519V0H413L159 550V0H63V686H197Z"  />
<glyph unicode="O" horiz-adv-x="581" d="M291 605Q283 605 268 603T236 590T203 557T178 497Q175 484 173 464T168 423T165 380T164 343Q164 327 165 306T168 264T172 222T178 189Q183 167 192 148T215 113T247 90T291 81Q305 81 321 84T352 99T380 132T402 189Q410 220 413 257T417 343Q417 399 413 435T402 497Q398 512 391 530T371 565T339 593T291 605ZM291 699Q351 699 391 679T454 633Q483 602 499 562T524 480T535 402T537 343Q537 322 535 285T525 207T500 124T454 53Q443 41 427 30T391 9T346 -7T291 -13Q239 -13 198 5T128 52Q119 62 105 82T77 136T54 220T44 342Q44 367 46 405T57 484T82 565T128 635Q150 658 190 678T291 699Z"  />
<glyph unicode="P" horiz-adv-x="511" d="M181 358H238Q273 358 303 363T352 398Q357 406 363 424T370 476Q370 494 366 517T347 561Q327 587 300 591T238 596H181V358ZM238 686Q265 686 291 685T343 678T392 661T435 629Q459 605 474 566T490 474Q490 437 479 399T445 334Q425 310 400 297T348 278T294 270T241 268H181V0H67V686H238Z"  />
<glyph unicode="Q" horiz-adv-x="580" d="M290 605Q261 605 242 594T210 566T190 531T179 497Q173 471 169 435T164 343Q164 289 168 251T180 186T195 145T209 121Q227 97 247 90T290 82Q314 82 333 89T371 121Q394 152 405 205T416 343Q416 356 416 375T414 415T409 457T402 497Q392 536 377 557T345 589T313 602T290 605ZM499 -146Q485 -152 470 -155T432 -158Q387 -158 357 -144T310 -97Q299 -77 295 -55T291 -12Q262 -13 238 -8T193 7T157 28T128 52Q119 61 105 81T77 135T54 221T44 343Q44 367 46 405T57 484T82 565T128 635Q150 658 190 678T291 699Q351 699 391 679T454 633Q483 602 499 561T524 480T534 404T536 350Q536 336 535 305T529 235T512 157T481 87Q464 62 439 41T379 5Q378 -8 381 -24T394 -52Q409 -69 444 -69Q461 -69 475 -66T499 -60V-146Z"  />
<glyph unicode="R" horiz-adv-x="546" d="M181 376H269Q284 376 299 379T331 391Q355 405 368 428T381 491Q381 533 366 554T332 585Q318 592 302 594T269 596H181V376ZM274 686Q331 686 374 674T449 625Q463 609 478 577T493 490Q493 456 485 425T455 364Q440 344 423 331T388 310L518 0H395L288 286H181V0H67V686H274Z"  />
<glyph unicode="S" horiz-adv-x="527" d="M378 499Q373 514 364 533T344 566Q325 589 303 597T254 605Q241 605 225 602T192 583Q178 570 171 553T164 519Q164 502 171 486T191 458Q204 445 228 435T300 405Q341 388 374 373T430 336Q453 316 472 282T492 195Q492 139 470 101T423 41Q394 17 354 2T263 -13Q207 -13 162 5T88 52Q63 77 47 110T25 179L126 208Q129 189 138 166T163 124Q183 102 209 92T263 81Q279 81 302 86T343 106Q355 115 365 132T376 176Q376 204 365 223T337 255T300 276T259 292Q224 305 186 321T115 366Q92 387 72 421T52 506Q52 550 69 586T115 648Q122 655 135 663T166 680T209 693T265 699Q320 699 356 682T412 645Q433 625 450 594T475 533L378 499Z"  />
<glyph unicode="T" horiz-adv-x="385" d="M402 686V592H249V0H135V592H-17V686H402Z"  />
<glyph unicode="U" horiz-adv-x="564" d="M172 686V260Q172 240 172 219Q172 199 175 180T185 142T207 110Q227 91 250 86T291 81Q305 81 326 85T367 108Q381 122 388 141T397 180T400 222Q400 244 400 263V686H502V268Q502 239 502 207T495 143T473 82T430 30Q403 9 364 -2T285 -13Q250 -13 210 -5T141 23Q112 42 97 68T73 125T64 190T62 260V686H172Z"  />
<glyph unicode="V" horiz-adv-x="475" d="M116 686L247 139L377 686H479L297 -2L174 0L-4 686H116Z"  />
<glyph unicode="W" horiz-adv-x="723" d="M119 686L212 172L320 686H418L525 172L622 686H720L575 -2H471L363 502L256 -2H150L3 686H119Z"  />
<glyph unicode="X" horiz-adv-x="455" d="M133 686L232 467L342 686H448L289 374L469 0H343L225 263L94 0H-14L169 355L7 686H133Z"  />
<glyph unicode="Y" horiz-adv-x="419" d="M89 686L216 400L344 686H452L263 290V0H149V290L-33 686H89Z"  />
<glyph unicode="Z" horiz-adv-x="439" d="M432 686V607L127 94H440V0H1V88L301 592H19V686H432Z"  />
<glyph unicode="[" horiz-adv-x="336" d="M261 686V628H180V-114H261V-172H83V686H261Z"  />
<glyph unicode="\" horiz-adv-x="491" d="M507 -172H429L50 686H128L507 -172Z"  />
<glyph unicode="]" horiz-adv-x="336" d="M75 -172V-114H155V628H75V686H253V-172H75Z"  />
<glyph unicode="^" horiz-adv-x="515" d="M16 360L188 689H327L500 360H388L257 606L126 360H16Z"  />
<glyph unicode="_" horiz-adv-x="515" d="M515 -57V-152H0V-57H515Z"  />
<glyph unicode="`" horiz-adv-x="521" d="M300 569L115 669L165 741L336 612L300 569Z"  />
<glyph unicode="a" horiz-adv-x="477" d="M314 249Q294 251 263 250T205 237Q186 229 175 218T158 194T150 167T148 140Q148 131 150 114T165 85Q175 75 189 71T217 67Q246 67 265 85T295 122Q308 146 311 172T314 223V249ZM56 377Q61 409 74 432T104 471Q138 504 178 512T254 521Q280 521 308 516T362 492Q382 477 393 460T411 421T418 373T420 315V140Q420 119 420 99Q420 80 422 48Q423 32 424 22T429 0H329Q325 25 324 44T323 84Q318 76 307 58T283 27Q266 10 240 -1T185 -13Q153 -13 123 -2T73 29Q55 49 46 78T37 137Q37 163 45 192T72 244Q92 269 121 283T183 305T250 313T314 315V335Q314 372 310 388T301 413Q296 421 282 433T239 445Q223 445 209 440T180 419Q173 411 166 398T158 365L56 377Z"  />
<glyph unicode="b" horiz-adv-x="494" d="M167 216Q167 203 168 187T172 155T181 123T197 95Q210 80 225 75T257 69Q272 69 289 75T320 104Q331 121 338 156T345 262Q345 314 340 351T318 410Q304 428 288 433T260 438Q240 438 225 431T199 411Q190 400 184 387T174 360T169 333T167 311V216ZM167 688V451Q185 477 211 496Q229 509 245 513T281 518Q313 518 342 508T398 467Q422 439 439 390T457 263Q457 254 456 226T448 163T426 92T384 31Q367 15 340 2T274 -11Q250 -11 227 -6T188 12Q175 21 164 36T145 69Q140 57 135 40T123 0H62V688H167Z"  />
<glyph unicode="c" horiz-adv-x="423" d="M314 326Q312 358 306 379T289 416Q278 430 265 435T237 441Q216 441 202 433T177 411Q171 403 166 391T157 360T151 315T149 252Q149 193 154 155T182 92Q204 67 236 67Q253 67 266 72T290 93Q301 109 307 134T314 184L416 176Q415 163 412 146T404 111T390 76T368 43Q351 23 317 5T232 -13Q181 -13 148 5T95 47Q75 70 64 99T46 156T39 210T37 252Q37 265 38 291T46 349T65 412T101 468Q133 502 170 511T240 521Q267 521 300 513T363 472Q387 446 400 408T416 338L314 326Z"  />
<glyph unicode="d" horiz-adv-x="493" d="M326 300Q326 335 320 363T291 414Q277 428 264 433T237 438Q196 438 174 402Q168 393 164 381T156 350T151 307T149 247Q149 211 152 186T159 144T169 116T179 99Q192 82 206 77T235 71Q251 71 264 75T292 94Q317 120 321 151T326 213V300ZM431 688V0H334V76Q327 59 316 44T291 18Q270 1 250 -4T209 -9Q183 -9 158 -2T108 29Q83 52 69 82T48 143T39 202T37 250Q37 271 39 300T48 360T69 422T108 477Q133 501 158 509T215 518Q229 518 246 515T283 500Q296 492 307 480T326 451V688H431Z"  />
<glyph unicode="e" horiz-adv-x="458" d="M324 310Q325 327 323 346T315 382Q306 408 287 426T236 445Q203 445 184 423T157 372Q153 358 151 341T147 310H324ZM144 238Q145 188 152 153T177 96Q193 78 210 73T241 67Q265 67 280 75T305 94Q317 108 323 128T332 163L428 150Q425 127 418 109T402 78T387 55T375 42Q355 22 323 5T242 -13Q214 -13 192 -8T153 6T125 22T107 37Q82 61 68 90T48 149T40 204T38 246Q38 324 55 377T101 461Q122 484 155 502T238 521Q271 521 297 513T342 491T374 462T395 433Q410 409 417 380T428 323T432 272Q432 249 432 238H144Z"  />
<glyph unicode="f" horiz-adv-x="262" d="M274 510V424H181V0H76V424H10V510H76Q76 536 77 559T83 603T97 642T122 675Q147 698 173 703T222 708Q244 708 258 707T286 702V618Q272 620 262 621T243 622Q228 622 215 617T193 603Q191 601 189 596T184 581T181 554T181 510H274Z"  />
<glyph unicode="g" horiz-adv-x="459" d="M169 22Q161 18 153 13T140 1Q133 -7 129 -18T124 -42Q124 -55 129 -71T156 -99Q170 -107 191 -110T247 -114Q270 -114 295 -111T341 -94Q358 -83 363 -71T368 -43Q368 -32 364 -20T342 4Q326 14 303 15T254 18Q228 19 209 19T169 22ZM241 453Q228 453 214 450T186 427Q174 410 171 390T167 352Q167 330 172 309T189 274Q199 263 213 259T242 254Q259 254 272 262T294 283Q303 297 306 318T310 355Q310 373 306 392T289 429Q278 443 267 448T241 453ZM460 514Q445 517 438 517Q423 517 412 513T392 495Q387 487 384 477T379 461Q402 438 411 408T420 351Q420 316 407 287T370 235Q341 207 308 198T244 188Q223 188 206 191T177 196Q172 194 165 190T152 181Q139 169 139 153Q139 136 146 129T168 116Q175 114 183 113T203 110T229 108T267 106Q284 105 306 104T350 99T394 87T431 65Q445 53 455 31T466 -27Q466 -55 459 -79T429 -127Q410 -147 387 -158T340 -177T289 -186T239 -188Q171 -188 134 -178T78 -154Q55 -138 42 -116T28 -63Q28 -36 35 -19T53 9Q63 20 76 27T103 38Q68 58 58 81T47 122Q47 146 56 164T76 193Q88 204 102 212T124 224Q101 238 88 255T68 289T59 324T57 354Q57 377 64 408T103 471Q136 504 171 512T233 521Q268 521 291 516T331 500Q333 520 341 541T363 573Q378 587 395 590T428 593Q442 593 460 590V514Z"  />
<glyph unicode="h" horiz-adv-x="477" d="M168 688V442Q173 453 183 468T208 495Q225 509 247 515T291 521Q321 521 345 511T384 485Q410 456 413 415T417 320V0H312L313 320Q313 358 310 380T297 416Q290 425 279 433T250 441Q230 441 217 433T194 410Q175 384 172 354T168 291V0H63V688H168Z"  />
<glyph unicode="i" horiz-adv-x="231" d="M60 577V689H171V577H60ZM168 510V0H63V510H168Z"  />
<glyph unicode="j" horiz-adv-x="229" d="M60 577V689H171V577H60ZM168 510V18Q168 -6 168 -29Q168 -52 165 -73T155 -113T135 -147Q113 -171 87 -177T38 -183Q21 -183 4 -181T-27 -176V-88Q-17 -90 -8 -91T12 -93Q25 -93 35 -90T53 -74Q62 -59 62 -36T63 20V510H168Z"  />
<glyph unicode="k" horiz-adv-x="441" d="M168 688V281L331 510H436L304 333L451 0H336L235 255L168 163V0H63V688H168Z"  />
<glyph unicode="l" horiz-adv-x="231" d="M168 688V0H63V688H168Z"  />
<glyph unicode="m" horiz-adv-x="724" d="M160 510V432Q165 443 175 460T198 489Q211 501 232 511T288 521Q322 521 341 511T371 491Q383 478 391 461T401 426Q406 439 415 455T439 486Q458 505 481 513T532 521Q562 521 585 513T623 491Q639 476 647 456T660 414T664 368Q664 345 664 324V0H559V314Q559 336 558 364T545 413Q541 421 530 431T498 441Q481 441 466 432T441 411Q432 399 427 383T419 352T417 322T416 299V0H311V310Q311 352 309 374T299 410Q291 425 280 433T249 441Q212 441 189 407Q175 386 172 359T168 296V0H63V510H160Z"  />
<glyph unicode="n" horiz-adv-x="477" d="M161 510V431Q165 442 173 457T198 489Q218 507 240 514T286 521Q318 521 342 511T383 484Q397 469 404 452T414 414T417 372Q417 351 417 328V0H312V322Q312 358 310 381T297 418Q292 425 282 433T252 441Q217 441 194 410Q174 381 171 347T168 285V0H63V510H161Z"  />
<glyph unicode="o" horiz-adv-x="477" d="M239 441Q220 441 207 434T186 417T172 395T164 374Q154 340 152 312T150 255Q150 226 151 197T164 133Q167 123 172 112T185 90T207 74T238 67Q257 67 270 74T291 91T305 112T313 133Q321 159 324 192T327 256Q327 308 321 338T313 374Q302 412 282 426T239 441ZM239 521Q269 521 303 513T370 473Q394 450 408 422T428 364T437 306T439 255Q439 230 437 202T428 144T408 87T370 36Q353 20 336 11T301 -4T268 -11T239 -13Q209 -13 173 -4T104 39Q81 63 68 92T48 152T40 209T38 255Q38 272 39 299T48 356T68 416T104 470Q137 504 173 512T239 521Z"  />
<glyph unicode="p" horiz-adv-x="494" d="M167 213Q167 198 167 182T171 151T180 122T200 94Q214 80 227 76T257 71Q272 71 285 75T311 95Q327 114 336 152T345 261Q345 276 344 297T340 341T330 382T313 414Q304 424 291 431T261 438Q244 438 227 430T195 405Q185 392 180 377T171 347T168 319T167 298V213ZM160 510V425Q167 443 179 461T207 493Q227 509 246 513T282 518Q312 518 339 509T391 474Q426 438 441 380T457 259Q457 230 453 198T441 135T419 78T386 32Q358 5 330 -2T282 -9Q262 -9 246 -6T212 8Q196 18 186 29T167 53V-173H62V510H160Z"  />
<glyph unicode="q" horiz-adv-x="493" d="M324 299Q324 350 313 376T288 416Q277 427 266 432T239 438Q216 438 201 429T178 409Q169 397 164 378T155 338T151 297T149 262Q149 219 153 190T162 142T173 113T182 98Q194 81 206 76T234 71Q252 71 266 78T294 102Q304 117 310 134T319 170T323 204T324 233V299ZM431 514Q431 493 431 477T430 446Q430 433 430 421T429 394V-173H324V65Q316 51 305 37T281 14Q265 3 246 -3T208 -9Q188 -9 161 -2T106 32Q84 54 71 81T50 138T40 196T37 251Q37 278 39 308T50 368T72 425T110 476Q136 501 161 509T212 518Q234 518 256 514T299 492Q314 480 325 463T342 434Q357 465 364 483T374 514H431Z"  />
<glyph unicode="r" horiz-adv-x="283" d="M156 510V395Q163 420 176 444T207 487Q227 507 245 513T280 520Q292 520 302 518V409Q289 411 284 411Q279 411 277 411Q261 411 243 405T212 388Q196 375 188 359T175 325T169 290T168 259V0H63V510H156Z"  />
<glyph unicode="s" horiz-adv-x="405" d="M286 368Q283 381 277 393T264 415Q250 432 234 438T202 445Q188 445 176 441T153 425Q136 407 136 382Q136 362 144 350T161 332Q171 324 187 319T236 302Q268 291 293 281T338 255Q364 235 375 210T387 151Q387 104 369 74T330 27Q304 6 269 -3T201 -13Q163 -13 127 -2T65 35Q45 54 33 80T17 135L107 153Q109 139 115 123T132 94Q143 82 160 74T205 65Q222 65 237 69T263 82Q271 90 277 103T283 131Q283 150 276 162T256 184T227 199T195 210Q163 220 135 231T80 265Q59 284 47 308T34 364Q34 393 45 422T82 476Q113 506 145 513T204 521Q232 521 264 513T325 474Q356 441 370 390L286 368Z"  />
<glyph unicode="t" horiz-adv-x="282" d="M177 651V510H273V424H177V200Q177 158 178 137T187 102Q193 92 206 84T242 75Q251 75 260 75T290 78V-4Q256 -10 239 -11T214 -13Q186 -13 158 -6T111 20Q96 34 88 53T77 95T73 143T72 193V424H6V510H75L80 642L177 651Z"  />
<glyph unicode="u" horiz-adv-x="477" d="M165 510V186Q165 157 166 134T176 93Q184 78 196 73T225 67Q239 67 251 71T277 90Q290 105 296 124T306 166T309 214Q309 239 309 265V510H414V0H317V76Q309 59 299 44T275 17Q239 -13 189 -13Q169 -13 145 -8T99 20Q69 50 65 90T60 184V510H165Z"  />
<glyph unicode="v" horiz-adv-x="370" d="M98 510L193 144L286 510H378L233 0H141L-6 510H98Z"  />
<glyph unicode="w" horiz-adv-x="580" d="M102 510L178 160L251 510H343L415 158L497 510H582L456 0H366L289 353L217 0H126L-1 510H102Z"  />
<glyph unicode="x" horiz-adv-x="370" d="M115 510L190 361L267 510H365L237 279L388 0H269L178 180L82 0H-18L130 265L-1 510H115Z"  />
<glyph unicode="y" horiz-adv-x="369" d="M106 510L194 160L285 510H380L215 -32Q205 -63 194 -94T164 -145Q141 -169 115 -175T63 -182Q49 -182 38 -181T13 -176V-91Q24 -93 33 -93T54 -94Q73 -94 87 -90T116 -65Q121 -57 125 -46T134 -23T140 0T145 17L0 510H106Z"  />
<glyph unicode="z" horiz-adv-x="354" d="M345 510V446L130 80H347V0H15V80L222 430H34V510H345Z"  />
<glyph unicode="{" horiz-adv-x="336" d="M259 626Q239 625 226 621T204 602Q199 594 198 579T197 525V417Q197 380 196 347T179 292Q172 282 161 275T134 264Q147 260 159 252T179 234Q195 213 196 179T197 109V-12Q197 -47 198 -63T204 -88Q218 -115 259 -112V-172Q238 -173 219 -173T184 -168T153 -156T126 -132Q116 -119 111 -103T104 -71T101 -40T100 -12V111Q100 144 100 164Q100 184 95 198Q88 218 76 222T45 227V299Q64 299 76 305T95 328Q100 341 100 359Q100 378 100 415V525Q100 537 100 553T103 585T111 617T126 646Q149 675 183 682T259 686V626Z"  />
<glyph unicode="|" horiz-adv-x="523" d="M314 686V-172H209V686H314Z"  />
<glyph unicode="}" horiz-adv-x="336" d="M77 -112Q118 -115 132 -88Q137 -80 138 -64T139 -12V109Q139 150 140 181T157 234Q165 245 177 252T202 264Q182 268 172 277T157 292Q141 314 140 344T139 417V525Q139 563 138 578T132 602Q124 616 111 620T77 626V686Q118 690 152 683T210 646Q220 633 225 618T232 586T235 553T236 525V415Q236 378 236 359Q236 341 241 328Q248 311 260 305T291 299V227Q272 226 260 222T241 198Q236 184 236 164Q236 144 236 111V-12Q236 -24 236 -39T233 -71T225 -103T210 -132Q198 -147 184 -155T153 -168T117 -172T77 -172V-112Z"  />
<glyph unicode="~" horiz-adv-x="690" d="M96 626Q100 635 106 647T119 671T133 694T147 713Q170 739 196 748T245 758Q271 758 298 749T356 726Q393 711 413 705T451 698Q467 698 481 704T506 720Q514 728 522 741T533 759L594 723Q586 705 575 686T552 653Q523 618 493 608T443 598Q419 598 395 605T342 624Q302 639 279 648T239 657Q206 657 181 630Q173 622 166 610T155 588L96 626Z"  />
<glyph unicode="&#xA0;" horiz-adv-x="233" />
<glyph unicode="&#xA4;" horiz-adv-x="529" d="M264 266Q286 266 302 274T330 296T346 324T352 354Q352 372 345 388T326 415T298 434T265 441Q229 441 203 416T177 354Q177 339 182 324T199 296T226 275T264 266ZM424 569L482 512L410 440Q424 419 429 396T435 354Q435 331 429 311T411 267L482 196L422 136L351 207Q306 183 265 183Q236 183 214 191T177 208L106 136L48 194L119 266Q105 287 100 310T94 354Q94 377 100 397T118 440L47 512L106 571L178 500Q198 511 221 517T265 523Q268 523 276 523T297 520T324 513T352 499L424 569Z"  />
<glyph unicode="&#xA6;" horiz-adv-x="523" d="M314 158V-172H209V158H314ZM314 686V336H209V686H314Z"  />
<glyph unicode="&#xA7;" horiz-adv-x="528" d="M222 377Q197 362 185 339T172 293Q172 279 178 262T206 229Q210 226 217 222T238 211T272 197T323 177Q343 190 357 215T371 262Q371 275 364 292T332 326Q326 330 319 333T300 342T270 356T222 377ZM373 545Q370 558 364 571T348 596Q336 610 320 617T282 625Q256 625 241 618T217 601Q199 581 199 547Q199 527 206 514T227 489Q245 474 268 465T315 446Q359 429 382 415T418 389Q444 363 452 336T460 286Q460 253 446 217T387 145Q420 125 443 90T466 1Q466 -41 451 -71T414 -123Q395 -141 375 -151T334 -167T296 -174T264 -176Q202 -176 166 -159T112 -123Q95 -105 81 -78T61 -22L154 -5Q157 -17 165 -36T187 -70Q202 -84 224 -91T269 -98Q313 -98 340 -74Q353 -63 360 -49T367 -14Q367 12 358 29T336 57Q324 67 303 77T236 104Q207 115 178 128T125 163Q100 186 91 212T81 267Q81 316 103 350T163 411Q129 437 115 468T101 535Q101 583 117 612T151 656Q177 679 212 689T279 699Q310 699 349 688T414 651Q428 636 441 612T460 564L373 545Z"  />
<glyph unicode="&#xA8;" horiz-adv-x="519" d="M388 580H299V692H388V580ZM220 580H131V692H220V580Z"  />
<glyph unicode="&#xA9;" horiz-adv-x="806" d="M403 56Q462 56 514 78T604 140T665 231T687 343Q687 403 665 455T604 546T514 607T403 630Q344 630 292 608T202 547T142 456T120 343Q120 284 142 232T202 140T291 79T403 56ZM403 -12Q329 -12 264 16T149 92T72 204T44 343Q44 416 72 481T149 594T263 671T403 699Q477 699 542 671T656 595T733 481T762 343Q762 269 734 205T657 92T543 16T403 -12ZM561 273Q559 244 546 214T510 163Q496 151 473 141T413 130Q389 130 359 136T300 171Q277 194 261 236T244 346Q244 418 264 459T308 521Q324 535 349 546T413 557Q432 557 455 552T501 530Q530 508 545 476T562 409L480 399Q476 427 474 436T471 448Q466 460 453 475T411 490Q398 490 381 482T349 440Q339 416 337 390T335 338Q335 305 338 285T347 250Q353 232 362 221T380 205T398 198T414 196Q431 196 446 204T471 242Q474 251 476 262T480 283L561 273Z"  />
<glyph unicode="&#xAB;" horiz-adv-x="406" d="M142 103L46 264L142 424H202L147 264L202 103H142ZM300 99L204 264L300 428H360L305 264L360 99H300Z"  />
<glyph unicode="&#xAC;" horiz-adv-x="515" d="M376 176H35V274H480V0H376V176Z"  />
<glyph unicode="&#xAD;" horiz-adv-x="301" d="M259 300V216H41V300H259Z"  />
<glyph unicode="&#xAE;" horiz-adv-x="806" d="M403 56Q462 56 514 78T604 140T665 231T687 343Q687 403 665 455T604 546T514 607T403 630Q344 630 292 608T202 547T142 456T120 343Q120 284 142 232T202 140T291 79T403 56ZM403 -12Q329 -12 264 16T149 92T72 204T44 343Q44 416 72 481T149 594T263 671T403 699Q477 699 542 671T656 595T733 481T762 343Q762 269 734 205T657 92T543 16T403 -12ZM351 367H400Q409 367 418 368T437 374Q447 379 452 387T461 403T464 419T465 432Q465 452 456 464T438 480Q432 483 420 485T400 487H351V367ZM403 549Q420 549 440 547T477 539Q515 525 532 496T550 430Q550 407 545 390T529 358Q518 342 507 334T484 321L570 137H476L407 305H351V137H265V549H403Z"  />
<glyph unicode="&#xB0;" horiz-adv-x="531" d="M265 630Q251 630 236 623T209 604Q198 591 192 573T186 538Q186 520 192 503T209 473Q233 446 265 446Q279 446 295 453T322 473Q333 486 339 503T345 538Q345 555 339 573T322 604Q311 616 295 623T265 630ZM265 699Q297 699 327 686T379 652Q398 633 412 605T426 538Q426 500 412 472T379 424Q356 402 327 390T265 378Q233 378 204 390T152 424Q133 443 119 471T105 538Q105 576 119 604T152 652Q174 673 204 686T265 699Z"  />
<glyph unicode="&#xB1;" horiz-adv-x="529" d="M54 6V89H475V6H54ZM475 385V301H308V138H221V301H54V385H221V554H308V385H475Z"  />
<glyph unicode="&#xB4;" horiz-adv-x="521" d="M379 741L429 669L245 569L209 612L379 741Z"  />
<glyph unicode="&#xB5;" horiz-adv-x="475" d="M412 508V0H316V76Q311 39 292 15Q281 2 267 -5T236 -13Q221 -13 206 -6T180 15Q171 26 165 44T156 76V-172H60V508H164V264Q164 195 167 154T189 92Q200 81 211 77T236 72Q246 72 259 75T283 92Q291 101 296 114T304 147T308 196T309 264L308 508H412Z"  />
<glyph unicode="&#xB6;" horiz-adv-x="546" d="M465 -172H396V617H345V-172H275V287H237Q181 287 139 299T65 352Q45 378 36 414T26 488Q26 542 41 577T74 632Q91 651 109 662T149 678T192 684T240 686H465V-172Z"  />
<glyph unicode="&#xB7;" horiz-adv-x="249" d="M182 129V0H67V129H182Z"  />
<glyph unicode="&#xBB;" horiz-adv-x="406" d="M263 428L360 264L263 99H204L258 264L204 428H263ZM105 428L202 264L105 99H46L100 264L46 428H105Z"  />
<glyph unicode="&#x401;" horiz-adv-x="507" d="M422 738H323V846H422V738ZM233 738H134V846H233V738ZM470 686V592H191V401H410V307H191V94H475V0H77V686H470Z"  />
<glyph unicode="&#x402;" horiz-adv-x="623" d="M425 686V596H249V377Q278 390 313 398T384 407Q481 407 535 342Q563 309 573 272T583 189Q583 156 576 123T542 57Q512 19 476 6T392 -8Q343 -8 303 4L323 94Q331 91 346 87T383 82Q399 82 414 87T444 109Q458 126 462 148T467 189Q467 204 464 228T446 274Q433 293 410 305T354 317Q328 317 300 308T249 285V0H135V596H-17V686H425Z"  />
<glyph unicode="&#x403;" horiz-adv-x="439" d="M181 0H67V686H429V592H181V0ZM373 894L409 811L203 748L175 797L373 894Z"  />
<glyph unicode="&#x404;" horiz-adv-x="554" d="M344 307H150Q150 301 150 285T153 247T159 204T170 164Q180 139 193 123T222 98T254 85T287 81Q349 81 380 131Q391 148 397 170T405 210L508 191Q504 158 495 133T475 89T456 61T445 47Q427 27 407 15T367 -3T328 -11T292 -13Q269 -13 243 -10T189 5T137 37T90 93Q76 117 66 149T48 218T38 290T34 356Q34 388 37 424T49 495T69 561T100 616Q119 641 141 657T187 683T234 695T281 699Q301 699 323 696T366 686T409 665T448 630Q472 602 487 562T510 487L407 467Q399 509 391 527T378 554Q367 573 344 589T283 605Q214 605 180 545Q171 530 166 511T157 471T152 433T150 401H344V307Z"  />
<glyph unicode="&#x405;" horiz-adv-x="527" d="M378 499Q373 514 364 533T344 566Q325 589 303 597T254 605Q241 605 225 602T192 583Q178 570 171 553T164 519Q164 502 171 486T191 458Q204 445 228 435T300 405Q341 388 374 373T430 336Q453 316 472 282T492 195Q492 139 470 101T423 41Q394 17 354 2T263 -13Q207 -13 162 5T88 52Q63 77 47 110T25 179L126 208Q129 189 138 166T163 124Q183 102 209 92T263 81Q279 81 302 86T343 106Q355 115 365 132T376 176Q376 204 365 223T337 255T300 276T259 292Q224 305 186 321T115 366Q92 387 72 421T52 506Q52 550 69 586T115 648Q122 655 135 663T166 680T209 693T265 699Q320 699 356 682T412 645Q433 625 450 594T475 533L378 499Z"  />
<glyph unicode="&#x406;" horiz-adv-x="248" d="M181 686V0H67V686H181Z"  />
<glyph unicode="&#x407;" horiz-adv-x="400" d="M333 736H238V844H333V736ZM162 736H67V844H162V736ZM257 686V0H143V686H257Z"  />
<glyph unicode="&#x408;" horiz-adv-x="318" d="M253 686V260Q253 219 252 182T243 113T222 56T180 13Q157 -2 128 -7T76 -13Q55 -13 29 -9T-17 0V94Q-5 90 12 87T50 83Q68 83 88 89T123 118Q127 125 130 135T135 161T138 201T139 260V686H253Z"  />
<glyph unicode="&#x409;" horiz-adv-x="835" d="M474 90H575Q589 90 610 94T651 121Q668 141 672 166T677 209Q677 231 672 257T650 301Q631 320 607 324T568 328H474V90ZM474 686V418H584Q599 418 617 417T655 412T694 398T731 374Q761 347 776 301T791 207Q791 174 786 149T773 106T757 75T743 56Q711 20 676 10T603 0H360V592H235Q235 567 234 533T233 464T231 395T228 339Q220 214 201 143T150 37Q123 8 95 1T47 -6Q36 -6 28 -5T10 0V100Q24 96 36 98T57 105Q77 115 89 134T108 180T119 236T126 299Q129 333 131 377T134 469T135 562T136 645V686H474Z"  />
<glyph unicode="&#x40A;" horiz-adv-x="858" d="M497 90H598Q612 90 633 94T674 121Q689 138 694 162T700 209Q700 238 693 259T673 292Q654 311 630 315T591 319H497V90ZM181 686V411H383V686H497V411H607Q622 411 640 410T678 405T717 391T754 367Q783 341 798 298T814 203Q814 155 801 118T766 56Q734 20 699 10T626 0H383V319H181V0H67V686H181Z"  />
<glyph unicode="&#x40B;" horiz-adv-x="640" d="M425 686V596H249V377Q294 397 328 401T380 405Q467 405 520 353Q553 320 563 283T573 211V0H461V190Q461 207 459 230T443 274Q435 287 415 301T355 315Q326 315 298 306T249 285V0H135V596H-17V686H425Z"  />
<glyph unicode="&#x40C;" horiz-adv-x="505" d="M181 400H238Q258 400 271 404T292 414T304 427T310 442Q314 453 316 472T323 533Q325 553 327 573T336 615Q341 633 349 647T376 674Q393 685 410 688T443 692Q453 692 460 691T475 686V598H467Q461 598 455 597T442 592T431 578T424 551Q422 535 421 524T419 504T417 485T413 462Q410 444 404 425T383 390Q378 385 367 377T337 363V360Q362 357 385 343T422 299Q427 290 433 267T443 195Q445 160 447 140T456 107Q464 94 473 91T490 88H494V0Q486 -4 480 -5T464 -6Q450 -6 435 -4T407 3T382 19T361 47Q358 53 355 62T349 87T343 129T337 194Q336 203 335 216T331 243T323 269T309 291Q294 305 274 307T238 310H181V0H67V686H181V400ZM383 894L419 811L213 748L185 797L383 894Z"  />
<glyph unicode="&#x40E;" horiz-adv-x="398" d="M83 686L213 316H216L329 686H431L269 186Q251 129 236 95T200 37Q171 5 141 -4T77 -13Q57 -13 42 -11T10 -4V92Q27 87 41 85T72 83Q93 83 108 88T137 109Q148 121 156 141T168 176L-33 686H83ZM152 857Q152 843 156 833T167 816Q183 797 215 797Q235 797 246 803T262 814Q269 821 273 832T278 857H372Q370 830 359 805T330 763Q304 739 273 732T215 725Q188 725 157 732T100 763Q82 780 71 805T58 857H152Z"  />
<glyph unicode="&#x40F;" horiz-adv-x="552" d="M181 686V94H371V686H485V0H325V-150H227V0H67V686H181Z"  />
<glyph unicode="&#x410;" horiz-adv-x="509" d="M247 575L170 262H325L247 575ZM322 686L506 0H390L347 172H147L105 0H-4L194 686H322Z"  />
<glyph unicode="&#x411;" horiz-adv-x="558" d="M181 90H284Q307 90 328 98T362 120Q375 134 382 156T390 207Q390 220 386 244T362 287Q348 300 325 308T278 316H181V90ZM461 596H181V406H298Q310 406 327 405T364 400T405 386T445 361Q455 352 465 339T485 308T500 265T506 209Q506 167 494 126T457 56Q440 36 421 25T384 9T348 2T316 0H67V686H461V596Z"  />
<glyph unicode="&#x412;" horiz-adv-x="566" d="M272 90Q286 90 309 93T354 110Q383 129 390 154T398 201Q398 207 397 218T392 243T380 269T358 292Q338 307 313 310T264 313H181V90H272ZM253 403Q273 403 300 406T342 420Q360 433 368 458T377 503Q377 524 369 545T345 579Q328 592 305 594T264 596H181V403H253ZM277 686Q317 686 355 683T423 661Q452 642 472 605T493 514Q493 470 483 445T461 407Q448 392 430 381T391 362Q415 356 433 345T466 319Q495 290 504 257T514 193Q514 158 507 132T488 86T462 54T436 33Q400 10 360 5T280 0H67V686H277Z"  />
<glyph unicode="&#x413;" horiz-adv-x="439" d="M181 0H67V686H429V592H181V0Z"  />
<glyph unicode="&#x414;" horiz-adv-x="575" d="M255 537Q255 522 254 503T250 463T245 422T240 386Q230 314 212 238T167 94H377V592H257L255 537ZM491 686V94H555V-154H457V0H108V-154H10V94H62Q74 123 85 153T107 222Q119 265 128 310T146 408Q150 435 153 467T158 531T161 591T163 640V686H491Z"  />
<glyph unicode="&#x415;" horiz-adv-x="475" d="M460 686V592H181V401H400V307H181V94H465V0H67V686H460Z"  />
<glyph unicode="&#x416;" horiz-adv-x="680" d="M393 400H424Q444 400 457 404T479 415T492 429T498 442Q499 446 500 452T503 468T507 493T511 533Q514 560 515 581T522 619Q532 655 560 674Q577 685 594 688T627 692Q637 692 644 691T659 686V598H651Q647 598 641 598T629 593T617 580T608 553Q606 539 606 525T603 497Q602 488 602 480T599 462Q597 445 592 426T569 390Q558 379 545 373T517 363V360Q527 359 539 356T564 346T588 328T608 299Q613 290 619 267T629 195Q631 160 633 140T642 107Q650 94 659 91T676 88H680V0Q672 -4 665 -5T649 -6Q621 -6 594 3T549 47Q546 53 543 62T537 87T531 129T525 194Q523 221 519 248T497 291Q481 305 460 307T424 310H393V0H287V310H256Q242 310 221 308T183 291Q166 276 162 249T155 194Q152 155 149 130T143 88T137 62T131 47Q114 13 87 4T31 -6Q23 -6 16 -5T0 0V88H4Q12 88 21 91T38 107Q45 119 47 139T51 195Q54 243 60 266T72 299Q80 316 91 327T116 345T141 355T163 360V363Q149 366 136 372T111 390Q94 407 89 426T81 462Q79 471 79 479T77 497Q75 511 75 525T72 553Q69 570 64 579T52 593T39 597T29 598H21V686Q29 690 36 691T53 692Q69 692 86 689T120 674Q148 655 158 619Q163 602 164 581T169 533Q171 509 173 494T176 468T179 452T182 442Q184 436 188 429T200 416T222 405T256 400H287V686H393V400Z"  />
<glyph unicode="&#x417;" horiz-adv-x="506" d="M35 498Q38 517 44 539T59 583T83 625T117 661Q149 686 184 692T252 699Q280 699 320 692T395 657Q406 648 417 635T438 605T453 565T459 514Q459 506 457 485T445 440T412 392T349 359V357Q374 354 395 343T433 316Q452 296 463 267T474 194Q474 179 472 161T464 122T445 82T414 42Q394 23 373 12T331 -4T290 -11T249 -13Q211 -13 172 -6T98 37Q68 67 51 111T29 196L133 210Q135 190 142 165T162 122Q179 98 199 90T249 81Q273 81 293 87T331 113Q348 132 353 153T358 200Q358 221 353 243T327 282Q308 298 288 301T247 304H173V398H244Q261 398 282 402T320 423Q332 435 339 455T347 506Q347 519 344 537T328 573Q314 592 294 598T251 605Q240 605 228 604T203 597T179 582T158 556Q152 544 146 523T138 485L35 498Z"  />
<glyph unicode="&#x418;" horiz-adv-x="577" d="M181 686V279Q181 256 178 239T173 196Q181 215 186 227T194 246T198 255T200 260L396 638V686H510V0H396V409Q396 416 396 422T398 437T400 461T404 498Q396 480 393 472T387 459T382 448T372 428L181 56V0H67V686H181Z"  />
<glyph unicode="&#x419;" horiz-adv-x="577" d="M231 857Q231 843 235 833T246 816Q262 797 294 797Q314 797 325 803T341 814Q348 821 352 832T357 857H451Q449 830 438 805T409 763Q383 739 352 732T294 725Q267 725 236 732T179 763Q161 780 150 805T137 857H231ZM181 686V279Q181 256 178 239T173 196Q181 215 186 227T194 246T198 255T200 260L396 638V686H510V0H396V409Q396 416 396 422T398 437T400 461T404 498Q396 480 393 472T387 459T382 448T372 428L181 56V0H67V686H181Z"  />
<glyph unicode="&#x41A;" horiz-adv-x="505" d="M181 400H238Q258 400 271 404T292 414T304 427T310 442Q314 453 316 472T323 533Q325 553 327 573T336 615Q341 633 349 647T376 674Q393 685 410 688T443 692Q453 692 460 691T475 686V598H467Q461 598 455 597T442 592T431 578T424 551Q422 535 421 524T419 504T417 485T413 462Q410 444 404 425T383 390Q378 385 367 377T337 363V360Q362 357 385 343T422 299Q427 290 433 267T443 195Q445 160 447 140T456 107Q464 94 473 91T490 88H494V0Q486 -4 480 -5T464 -6Q450 -6 435 -4T407 3T382 19T361 47Q358 53 355 62T349 87T343 129T337 194Q336 203 335 216T331 243T323 269T309 291Q294 305 274 307T238 310H181V0H67V686H181V400Z"  />
<glyph unicode="&#x41B;" horiz-adv-x="541" d="M474 686V0H360V592H235Q235 567 234 533T233 464T231 395T228 339Q220 214 201 143T150 37Q123 8 95 1T47 -6Q36 -6 28 -5T10 0V100Q24 96 36 98T57 105Q77 115 89 134T108 180T119 236T126 299Q129 333 131 377T134 469T135 562T136 645V686H474Z"  />
<glyph unicode="&#x41C;" horiz-adv-x="741" d="M234 686L371 191L511 686H674V0H566V585L403 0H321L161 586V0H65V686H234Z"  />
<glyph unicode="&#x41D;" horiz-adv-x="564" d="M181 686V401H383V686H497V0H383V307H181V0H67V686H181Z"  />
<glyph unicode="&#x41E;" horiz-adv-x="581" d="M291 605Q283 605 268 603T236 590T203 557T178 497Q175 484 173 464T168 423T165 380T164 343Q164 327 165 306T168 264T172 222T178 189Q183 167 192 148T215 113T247 90T291 81Q305 81 321 84T352 99T380 132T402 189Q410 220 413 257T417 343Q417 399 413 435T402 497Q398 512 391 530T371 565T339 593T291 605ZM291 699Q351 699 391 679T454 633Q483 602 499 562T524 480T535 402T537 343Q537 322 535 285T525 207T500 124T454 53Q443 41 427 30T391 9T346 -7T291 -13Q239 -13 198 5T128 52Q119 62 105 82T77 136T54 220T44 342Q44 367 46 405T57 484T82 565T128 635Q150 658 190 678T291 699Z"  />
<glyph unicode="&#x41F;" horiz-adv-x="556" d="M489 686V0H377V595H179V0H67V686H489Z"  />
<glyph unicode="&#x420;" horiz-adv-x="511" d="M181 358H238Q273 358 303 363T352 398Q357 406 363 424T370 476Q370 494 366 517T347 561Q327 587 300 591T238 596H181V358ZM238 686Q265 686 291 685T343 678T392 661T435 629Q459 605 474 566T490 474Q490 437 479 399T445 334Q425 310 400 297T348 278T294 270T241 268H181V0H67V686H238Z"  />
<glyph unicode="&#x421;" horiz-adv-x="544" d="M516 217Q514 198 509 175T496 129T474 83T441 42Q420 22 385 5T295 -13Q263 -13 237 -7T190 9T154 31T127 55Q99 85 83 124T58 203T47 280T44 343Q44 364 46 401T57 482T86 567T138 641Q161 663 199 681T295 699Q338 699 371 687T428 656Q458 632 483 587T516 464L411 449Q405 488 399 517T370 572Q340 605 297 605Q271 605 252 596T219 572Q200 552 189 524T173 463T166 398T164 337Q164 317 165 289T172 230T186 170T213 120Q233 96 254 89T295 81Q323 81 341 91T374 120Q383 132 393 157T411 230L516 217Z"  />
<glyph unicode="&#x422;" horiz-adv-x="385" d="M402 686V592H249V0H135V592H-17V686H402Z"  />
<glyph unicode="&#x423;" horiz-adv-x="398" d="M83 686L213 316H216L329 686H431L269 186Q251 129 236 95T200 37Q171 5 141 -4T77 -13Q57 -13 42 -11T10 -4V92Q27 87 41 85T72 83Q93 83 108 88T137 109Q148 121 156 141T168 176L-33 686H83Z"  />
<glyph unicode="&#x424;" horiz-adv-x="692" d="M398 184Q405 184 416 184Q427 184 440 186T466 193T492 204Q527 226 538 265T550 356Q550 368 549 385T544 421T533 458T512 490Q509 493 502 499T481 512T449 523T405 528H398V184ZM294 528H287Q255 528 226 518T180 490Q167 476 160 458T148 422T143 386T142 356Q142 305 153 266T200 204Q212 197 225 193T252 187T276 184Q287 184 294 184V528ZM401 706V618H406Q418 618 437 617T478 611T523 596T569 566Q583 554 597 536T624 493T644 434T652 357Q652 289 634 240T588 161Q550 121 502 109T401 94V-7H291V94Q238 96 190 108T104 161Q76 190 58 239T40 357Q40 400 48 433T68 492T94 536T123 566Q145 585 168 595T214 611T255 617T286 618H291V706H401Z"  />
<glyph unicode="&#x425;" horiz-adv-x="455" d="M133 686L232 467L342 686H448L289 374L469 0H343L225 263L94 0H-14L169 355L7 686H133Z"  />
<glyph unicode="&#x426;" horiz-adv-x="568" d="M181 686V94H369V686H483V94H548V-154H450V0H67V686H181Z"  />
<glyph unicode="&#x427;" horiz-adv-x="541" d="M169 686V490Q169 470 171 444T189 399Q196 391 214 381T265 370Q297 370 322 376T362 389V686H474V0H362V299Q309 280 250 280Q237 280 221 281T186 286T148 298T112 320Q80 346 69 385T57 476V686H169Z"  />
<glyph unicode="&#x428;" horiz-adv-x="782" d="M175 686V94H335V686H445V94H605V686H715V0H65V686H175Z"  />
<glyph unicode="&#x429;" horiz-adv-x="798" d="M175 686V94H335V686H445V94H605V686H715V94H778V-154H680V0H65V686H175Z"  />
<glyph unicode="&#x42A;" horiz-adv-x="623" d="M263 90H360Q367 90 377 90T399 94T422 103T444 120Q461 140 464 165T468 212Q468 235 464 259T439 304Q421 323 401 327T361 332H263V90ZM263 686V422H381Q413 422 437 417T479 403T508 385T526 370Q552 344 565 302T578 210Q578 165 566 124T528 54Q511 36 477 18T386 0H149V596H-10V686H263Z"  />
<glyph unicode="&#x42B;" horiz-adv-x="732" d="M175 90H268Q275 90 285 90T307 94T330 103T352 120Q369 140 372 165T376 212Q376 235 372 259T347 304Q329 323 309 327T269 332H175V90ZM175 686V422H289Q321 422 345 417T387 403T416 385T434 370Q460 344 473 302T486 210Q486 165 474 124T436 54Q419 36 385 18T294 0H65V686H175ZM665 0H555V686H665V0Z"  />
<glyph unicode="&#x42C;" horiz-adv-x="524" d="M179 90H276Q283 90 293 90T315 94T338 103T360 120Q377 140 380 165T384 212Q384 235 380 259T355 304Q337 323 317 327T277 332H179V90ZM179 686V422H297Q329 422 353 417T395 403T424 385T442 370Q468 344 481 302T494 210Q494 165 482 124T444 54Q427 36 393 18T302 0H65V686H179Z"  />
<glyph unicode="&#x42D;" horiz-adv-x="560" d="M400 401Q400 414 399 432T394 471T385 510T370 545Q350 580 324 592T267 605Q242 605 216 596T169 554Q156 534 151 508T143 467L40 483Q45 521 60 561T98 630Q118 654 140 668T184 688T228 697T267 699Q290 699 314 696T362 683T408 658T450 617Q468 594 480 562T501 495T512 423T516 356Q516 326 513 290T502 218T485 150T460 93Q439 58 414 38T361 6T307 -9T257 -13Q239 -13 218 -11T175 -3T132 15T93 47Q67 75 52 116T34 195L141 210Q143 192 148 170T162 131Q179 102 203 92T259 81Q294 81 327 97T380 164Q386 179 390 198T396 238T399 276T400 307H206V401H400Z"  />
<glyph unicode="&#x42E;" horiz-adv-x="779" d="M504 605Q471 605 442 581T398 497Q391 466 388 423T385 343Q385 307 388 264T398 189Q406 154 419 133T446 100T476 85T504 81Q518 81 533 84T562 99T588 132T608 189Q619 234 620 269T622 343Q622 380 621 416T608 497Q605 512 598 530T579 565T549 593T504 605ZM177 686V402H274Q275 431 280 464T295 528T319 588T351 635Q371 658 409 678T504 699Q561 699 598 679T657 633Q684 602 699 561T723 479T733 402T735 343Q735 322 733 286T723 207T700 124T657 53Q650 45 637 34T605 13T561 -5T504 -13Q472 -13 447 -6T402 12T371 33T351 52Q331 74 316 105T292 172T278 242T273 306H177V0H67V686H177Z"  />
<glyph unicode="&#x42F;" horiz-adv-x="539" d="M268 596Q251 596 232 593T194 575Q169 555 163 530T157 484Q157 449 167 429T189 398Q203 385 223 379T264 373H358V596H268ZM472 0H358V283H258L147 0H20L156 303Q141 309 124 319T92 344Q69 367 56 403T43 482Q43 534 61 573T105 637Q143 671 185 678T264 686H472V0Z"  />
<glyph unicode="&#x430;" horiz-adv-x="477" d="M314 249Q294 251 263 250T205 237Q186 229 175 218T158 194T150 167T148 140Q148 131 150 114T165 85Q175 75 189 71T217 67Q246 67 265 85T295 122Q308 146 311 172T314 223V249ZM56 377Q61 409 74 432T104 471Q138 504 178 512T254 521Q280 521 308 516T362 492Q382 477 393 460T411 421T418 373T420 315V140Q420 119 420 99Q420 80 422 48Q423 32 424 22T429 0H329Q325 25 324 44T323 84Q318 76 307 58T283 27Q266 10 240 -1T185 -13Q153 -13 123 -2T73 29Q55 49 46 78T37 137Q37 163 45 192T72 244Q92 269 121 283T183 305T250 313T314 315V335Q314 372 310 388T301 413Q296 421 282 433T239 445Q223 445 209 440T180 419Q173 411 166 398T158 365L56 377Z"  />
<glyph unicode="&#x431;" horiz-adv-x="475" d="M238 67Q258 67 270 74T291 89Q301 100 308 119T319 162T324 209T326 253Q326 293 319 330T289 388Q267 407 238 407Q210 407 189 389Q174 376 166 357T155 317T150 276T149 239Q149 174 160 139T186 89Q195 79 208 73T238 67ZM412 607Q391 599 371 593T327 580Q305 574 287 570T249 560Q227 555 210 549T179 533Q149 511 136 473T121 399L124 398Q141 432 172 454Q209 481 257 481Q296 481 327 466T379 431Q400 410 412 384T429 331T436 280T438 239Q438 219 436 195T428 145T411 94T380 48Q345 8 307 -2T239 -13Q228 -13 212 -12T176 -5T136 12T97 45Q77 68 65 98T47 161T39 226T37 286Q37 313 38 351T47 429T68 508T108 577Q134 607 163 622T225 647Q260 658 283 663T329 674Q346 678 412 697V607Z"  />
<glyph unicode="&#x432;" horiz-adv-x="474" d="M160 74H248Q262 74 278 76T308 90Q325 104 329 120T333 150Q333 164 328 182T303 213Q285 225 247 225H160V74ZM160 299H234Q247 299 263 301T294 315Q308 326 312 341T317 369Q317 385 312 399T291 425Q277 435 264 435T236 436H160V299ZM274 510Q295 510 325 506T380 482Q394 471 407 448T421 386Q421 357 413 338T393 305Q381 291 364 283T328 271V269Q349 267 371 258T409 231Q429 210 433 185T437 138Q437 112 430 84T391 31Q371 16 347 8T298 0H60V510H274Z"  />
<glyph unicode="&#x433;" horiz-adv-x="354" d="M364 510V424H168V0H63V510H364Z"  />
<glyph unicode="&#x434;" horiz-adv-x="461" d="M192 386Q192 371 191 351T188 308T184 267T180 235Q175 200 166 158T145 86H290V424H192V386ZM395 510V86H446V-134H360V0H91V-134H5V86H49Q69 138 81 184T101 286Q104 307 105 331T108 380T109 428T110 473V510H395Z"  />
<glyph unicode="&#x435;" horiz-adv-x="458" d="M324 310Q325 327 323 346T315 382Q306 408 287 426T236 445Q203 445 184 423T157 372Q153 358 151 341T147 310H324ZM144 238Q145 188 152 153T177 96Q193 78 210 73T241 67Q265 67 280 75T305 94Q317 108 323 128T332 163L428 150Q425 127 418 109T402 78T387 55T375 42Q355 22 323 5T242 -13Q214 -13 192 -8T153 6T125 22T107 37Q82 61 68 90T48 149T40 204T38 246Q38 324 55 377T101 461Q122 484 155 502T238 521Q271 521 297 513T342 491T374 462T395 433Q410 409 417 380T428 323T432 272Q432 249 432 238H144Z"  />
<glyph unicode="&#x436;" horiz-adv-x="570" d="M334 308H366Q384 308 393 313T405 322Q410 327 413 337T419 368Q422 387 424 403T431 440Q434 454 440 468T461 495Q477 508 495 511T530 514Q537 514 542 514T555 510V434Q543 437 534 433T519 421Q517 418 515 411T510 384L504 344Q502 331 497 317T478 291Q470 284 460 280T439 274V272Q443 272 450 270T466 263T483 247T498 221Q502 210 503 201T506 181T509 157T514 128Q519 104 530 92T570 80V0Q564 -2 557 -3T541 -4Q524 -4 506 -1T475 11Q449 26 439 52T426 98Q425 103 425 108T423 122T420 143T415 176Q414 183 412 191T406 206T393 217T370 222H334V0H236V222H200Q171 222 164 207T155 176Q152 156 150 144T147 123T146 109T144 98Q141 78 131 52T95 11Q83 3 65 0T29 -4Q20 -4 13 -3T0 0V80Q28 79 39 91T56 128Q59 144 60 157T63 180T66 200T72 221Q78 237 86 247T103 262T119 270T131 272V274Q120 276 110 280T92 291Q78 302 73 316T66 344L60 384Q57 404 55 411T51 421Q46 429 37 433T15 434V510Q22 513 27 513T40 514Q57 514 75 511T109 495Q123 483 129 469T139 440Q144 420 146 404T151 368Q154 348 157 338T165 322Q168 318 177 313T204 308H236V510H334V308Z"  />
<glyph unicode="&#x437;" horiz-adv-x="426" d="M35 361Q39 394 53 425T88 478Q117 507 149 514T213 521Q239 521 269 516T325 491Q351 472 365 443T379 380Q379 352 371 333T351 303Q340 292 324 283T288 269V267Q314 262 331 251T357 229Q374 211 381 190T389 144Q389 102 373 72T332 23Q310 6 278 -3T200 -13Q171 -13 138 -5T77 32Q55 55 43 88T29 155L131 166Q132 149 137 130T150 97Q163 77 180 70T213 63Q228 63 241 69T263 84Q277 98 280 115T283 146Q283 158 280 173T263 200Q249 212 232 214T201 217H160V302H201Q210 302 228 304T260 320Q272 331 274 346T277 371Q277 384 274 399T259 426Q248 439 235 442T210 445Q198 445 180 440T148 413Q140 402 136 384T131 348L35 361Z"  />
<glyph unicode="&#x438;" horiz-adv-x="505" d="M168 510V233Q168 214 166 198T161 161Q168 176 172 185T178 200T182 211T189 223L340 470V510H445V0H340V282Q340 291 341 306T347 357Q336 329 331 316T318 292L168 47V0H63V510H168Z"  />
<glyph unicode="&#x439;" horiz-adv-x="488" d="M158 510V233Q158 214 156 198T151 161Q158 176 162 185T168 200T172 211T179 223L330 470V510H435V0H330V282Q330 291 331 306T337 357Q328 335 323 322T307 292L158 47V0H53V510H158ZM384 700Q384 682 381 668T372 643T360 624T350 612Q333 593 306 582T246 570Q217 570 189 580T140 612Q128 624 117 646T106 700H193Q192 689 194 678T203 657Q210 646 221 641T247 635Q259 635 272 640T292 657Q297 665 299 678T301 700H384Z"  />
<glyph unicode="&#x43A;" horiz-adv-x="438" d="M168 308H224Q242 308 251 313T263 322Q268 327 271 337T277 368Q280 387 282 403T289 440Q292 454 298 468T319 495Q335 508 353 511T388 514Q395 514 400 514T413 510V434Q401 437 392 433T377 421Q375 418 373 411T368 384L362 344Q360 331 355 317T336 291Q328 284 318 280T297 274V272Q301 272 308 270T324 263T341 247T356 221Q360 210 361 201T364 181T367 157T372 128Q377 104 388 92T428 80V0Q422 -2 415 -3T399 -4Q382 -4 364 -1T333 11Q307 26 297 52T284 98Q283 103 283 108T281 122T278 143T273 176Q272 183 270 191T264 206T251 217T228 222H168V0H63V510H168V308Z"  />
<glyph unicode="&#x43B;" horiz-adv-x="447" d="M384 510V0H279V424H186L185 338Q184 286 181 233T170 139Q165 106 154 78T118 27Q109 19 88 8T33 -4Q25 -4 17 -3T0 0V87Q35 85 51 101T74 139Q75 143 77 153T83 184T88 242T93 334Q93 345 93 360T94 391T95 420T96 439L97 510H384Z"  />
<glyph unicode="&#x43C;" horiz-adv-x="605" d="M217 510L310 153L395 510H545V0H449V342Q449 369 449 381T450 399Q450 405 450 410Q450 416 450 431Q441 402 436 385T428 358T424 344T422 338L335 0H271L176 338Q174 346 173 350T170 359T167 369T163 384Q161 394 159 402T150 431Q150 416 150 408Q150 400 150 392Q150 385 150 375T151 344V0H63V510H217Z"  />
<glyph unicode="&#x43D;" horiz-adv-x="485" d="M320 310V510H425V0H320V223H168V0H63V510H168V310H320Z"  />
<glyph unicode="&#x43E;" horiz-adv-x="477" d="M239 441Q220 441 207 434T186 417T172 395T164 374Q154 340 152 312T150 255Q150 226 151 197T164 133Q167 123 172 112T185 90T207 74T238 67Q257 67 270 74T291 91T305 112T313 133Q321 159 324 192T327 256Q327 308 321 338T313 374Q302 412 282 426T239 441ZM239 521Q269 521 303 513T370 473Q394 450 408 422T428 364T437 306T439 255Q439 230 437 202T428 144T408 87T370 36Q353 20 336 11T301 -4T268 -11T239 -13Q209 -13 173 -4T104 39Q81 63 68 92T48 152T40 209T38 255Q38 272 39 299T48 356T68 416T104 470Q137 504 173 512T239 521Z"  />
<glyph unicode="&#x43F;" horiz-adv-x="469" d="M409 510V0H304V424H168V0H63V510H409Z"  />
<glyph unicode="&#x440;" horiz-adv-x="494" d="M167 213Q167 198 167 182T171 151T180 122T200 94Q214 80 227 76T257 71Q272 71 285 75T311 95Q327 114 336 152T345 261Q345 276 344 297T340 341T330 382T313 414Q304 424 291 431T261 438Q244 438 227 430T195 405Q185 392 180 377T171 347T168 319T167 298V213ZM160 510V425Q167 443 179 461T207 493Q227 509 246 513T282 518Q312 518 339 509T391 474Q426 438 441 380T457 259Q457 230 453 198T441 135T419 78T386 32Q358 5 330 -2T282 -9Q262 -9 246 -6T212 8Q196 18 186 29T167 53V-173H62V510H160Z"  />
<glyph unicode="&#x441;" horiz-adv-x="423" d="M314 326Q312 358 306 379T289 416Q278 430 265 435T237 441Q216 441 202 433T177 411Q171 403 166 391T157 360T151 315T149 252Q149 193 154 155T182 92Q204 67 236 67Q253 67 266 72T290 93Q301 109 307 134T314 184L416 176Q415 163 412 146T404 111T390 76T368 43Q351 23 317 5T232 -13Q181 -13 148 5T95 47Q75 70 64 99T46 156T39 210T37 252Q37 265 38 291T46 349T65 412T101 468Q133 502 170 511T240 521Q267 521 300 513T363 472Q387 446 400 408T416 338L314 326Z"  />
<glyph unicode="&#x442;" horiz-adv-x="364" d="M358 510V424H235V0H129V424H6V510H358Z"  />
<glyph unicode="&#x443;" horiz-adv-x="369" d="M106 510L194 160L285 510H380L215 -32Q205 -63 194 -94T164 -145Q141 -169 115 -175T63 -182Q49 -182 38 -181T13 -176V-91Q24 -93 33 -93T54 -94Q73 -94 87 -90T116 -65Q121 -57 125 -46T134 -23T140 0T145 17L0 510H106Z"  />
<glyph unicode="&#x444;" horiz-adv-x="618" d="M368 78Q400 78 422 94T457 134Q463 146 467 162T474 196T477 229T478 256Q478 266 478 281T475 312T470 343T461 370Q447 401 420 416T368 432H357V78H368ZM261 432H250Q226 432 199 417T157 370Q152 359 149 344T143 312T141 281T140 256Q140 245 141 229T144 196T150 163T161 134Q173 111 195 95T250 78H261V432ZM359 686V510H367Q380 510 397 509T433 502T473 485T513 454Q536 431 549 405T569 353T578 302T580 259Q580 189 563 140T520 62Q502 42 480 31T437 12T395 3T359 0V-165H259V0Q244 0 224 2T182 12T138 30T98 62Q72 91 55 140T38 259Q38 277 40 301T48 352T68 405T105 454Q124 473 144 484T184 501T221 508T251 510H259V686H359Z"  />
<glyph unicode="&#x445;" horiz-adv-x="370" d="M115 510L190 361L267 510H365L237 279L388 0H269L178 180L82 0H-18L130 265L-1 510H115Z"  />
<glyph unicode="&#x446;" horiz-adv-x="490" d="M63 510H168V86H298V510H403V86H460V-134H374V0H63V510Z"  />
<glyph unicode="&#x447;" horiz-adv-x="449" d="M145 510V355Q145 344 146 330T156 301Q166 284 181 279T214 273Q247 273 281 287V510H386V0H281V207Q258 198 233 195T185 191Q156 191 130 198T82 225Q67 240 59 257T46 293T41 329T40 361V510H145Z"  />
<glyph unicode="&#x448;" horiz-adv-x="672" d="M160 510V86H289V510H386V86H515V510H612V0H63V510H160Z"  />
<glyph unicode="&#x449;" horiz-adv-x="696" d="M160 510V86H289V510H386V86H515V510H612V86H666V-134H580V0H63V510H160Z"  />
<glyph unicode="&#x44A;" horiz-adv-x="495" d="M216 80H263Q281 80 300 83T333 100Q348 114 351 133T355 162Q355 179 350 198T328 231Q313 243 294 245T263 248H216V80ZM216 510V328H290Q341 328 374 315T426 284Q443 267 454 238T465 166Q465 118 451 85T415 34Q393 16 361 8T300 0H111V424H-15V510H216Z"  />
<glyph unicode="&#x44B;" horiz-adv-x="614" d="M163 80H207Q225 80 245 83T280 100Q287 106 294 121T301 164Q301 178 296 197T274 231Q258 243 238 245T207 248H163V80ZM163 328H234Q248 328 265 327T299 321T334 308T366 284Q392 258 399 226T407 165Q407 109 391 79T357 34Q335 16 304 8T244 0H63V510H163V328ZM554 510V0H454V510H554Z"  />
<glyph unicode="&#x44C;" horiz-adv-x="442" d="M168 80H215Q233 80 252 83T285 100Q300 114 303 133T307 162Q307 179 302 198T280 231Q265 243 246 245T215 248H168V80ZM168 328H242Q293 328 326 315T378 284Q395 267 406 238T417 166Q417 118 403 85T367 34Q345 16 313 8T252 0H63V510H168V328Z"  />
<glyph unicode="&#x44D;" horiz-adv-x="452" d="M32 363Q37 394 52 425T90 478Q106 493 124 501T158 514T190 520T215 521Q249 521 288 509T360 457Q374 439 384 416T401 368T411 315T414 262Q414 239 412 213T404 160T389 110T368 66Q351 41 332 26T291 2T247 -10T201 -13Q173 -13 143 -7T84 24Q57 48 43 84T27 152L129 164Q130 150 134 130T147 97Q160 77 177 72T207 67Q242 67 261 83T289 114Q296 127 300 144T305 177T307 205T308 221H160V305H308Q308 324 304 349T291 392Q277 420 256 430T211 441Q166 441 142 404Q135 393 131 379T125 351L32 363Z"  />
<glyph unicode="&#x44E;" horiz-adv-x="667" d="M435 443Q416 443 395 430T360 374Q352 345 350 316T347 255Q347 210 350 182T360 133Q366 112 375 100T394 80T415 70T435 67Q458 67 478 82T509 133Q512 144 514 160T518 193T521 226T522 255Q522 282 519 316T509 374Q503 396 494 409T475 430T454 440T435 443ZM164 510V310H249Q250 327 254 349T265 393T284 437T310 473Q340 504 375 512T438 521Q467 521 500 513T564 473Q597 439 613 383T629 255Q629 183 613 126T564 36Q544 16 512 2T438 -13Q400 -13 367 0T311 36Q297 50 285 71T265 118T252 170T247 223H164V0H63V510H164Z"  />
<glyph unicode="&#x44F;" horiz-adv-x="454" d="M236 430Q219 430 197 427T158 405Q147 394 144 381T141 355Q141 332 148 318T163 296Q178 282 196 279T229 276H290V430H236ZM391 0H290V196H211L130 0H20L123 216Q95 229 74 250Q50 274 43 299T35 353Q35 379 41 404T67 454Q96 489 138 499T226 510H391V0Z"  />
<glyph unicode="&#x451;" horiz-adv-x="457" d="M319 310Q320 327 318 346T310 382Q301 408 282 426T231 445Q198 445 179 423T152 372Q148 358 146 341T142 310H319ZM139 238Q140 188 147 153T172 96Q188 78 205 73T236 67Q260 67 275 75T300 94Q312 108 318 128T327 163L423 150Q420 127 413 109T397 78T382 55T370 42Q350 22 318 5T237 -13Q209 -13 187 -8T148 6T120 22T102 37Q77 61 63 90T43 149T35 204T33 246Q33 324 50 377T96 461Q117 484 150 502T233 521Q266 521 292 513T337 491T369 462T390 433Q405 409 412 380T423 323T427 272Q427 249 427 238H139ZM358 580H269V692H358V580ZM190 580H101V692H190V580Z"  />
<glyph unicode="&#x452;" horiz-adv-x="490" d="M6 562V632H70V688H175V632H335V562H175V433Q190 474 222 496T297 519Q337 519 360 504T397 471Q419 441 424 400T430 318V32Q430 -29 423 -63T402 -118Q382 -147 345 -161T264 -175Q245 -175 230 -173T201 -166V-77Q216 -82 231 -83T257 -85Q303 -85 317 -45Q318 -41 319 -35T322 -17T324 14T325 64V299Q325 325 324 343T321 373T317 393T311 406Q302 423 286 431T255 439Q239 439 228 431T209 414Q204 409 199 400T188 375T179 335T175 274V0H70V562H6Z"  />
<glyph unicode="&#x453;" horiz-adv-x="354" d="M364 510V424H168V0H63V510H364ZM318 741L368 669L184 569L148 612L318 741Z"  />
<glyph unicode="&#x454;" horiz-adv-x="455" d="M329 351Q327 361 322 376T309 405Q299 420 283 430T241 441Q214 441 196 428T165 392Q156 374 152 351T148 305H294V225H148Q147 173 154 149T166 114Q177 94 197 81T247 67Q270 67 284 76T306 93Q317 107 322 126T329 160L427 144Q422 109 405 75T361 20Q350 12 322 0T242 -13Q223 -13 203 -10T162 1T123 25T86 67Q74 85 65 109T50 159T41 213T38 266Q38 315 51 368T94 457Q110 477 128 489T165 509T202 518T236 521Q283 521 313 507T360 478Q385 456 400 426T422 367L329 351Z"  />
<glyph unicode="&#x455;" horiz-adv-x="405" d="M286 368Q283 381 277 393T264 415Q250 432 234 438T202 445Q188 445 176 441T153 425Q136 407 136 382Q136 362 144 350T161 332Q171 324 187 319T236 302Q268 291 293 281T338 255Q364 235 375 210T387 151Q387 104 369 74T330 27Q304 6 269 -3T201 -13Q163 -13 127 -2T65 35Q45 54 33 80T17 135L107 153Q109 139 115 123T132 94Q143 82 160 74T205 65Q222 65 237 69T263 82Q271 90 277 103T283 131Q283 150 276 162T256 184T227 199T195 210Q163 220 135 231T80 265Q59 284 47 308T34 364Q34 393 45 422T82 476Q113 506 145 513T204 521Q232 521 264 513T325 474Q356 441 370 390L286 368Z"  />
<glyph unicode="&#x456;" horiz-adv-x="231" d="M60 577V689H171V577H60ZM168 510V0H63V510H168Z"  />
<glyph unicode="&#x457;" horiz-adv-x="231" d="M241 581H152V693H241V581ZM79 581H-10V693H79V581ZM168 510V0H63V510H168Z"  />
<glyph unicode="&#x458;" horiz-adv-x="229" d="M60 577V689H171V577H60ZM168 510V18Q168 -6 168 -29Q168 -52 165 -73T155 -113T135 -147Q113 -171 87 -177T38 -183Q21 -183 4 -181T-27 -176V-88Q-17 -90 -8 -91T12 -93Q25 -93 35 -90T53 -74Q62 -59 62 -36T63 20V510H168Z"  />
<glyph unicode="&#x459;" horiz-adv-x="662" d="M380 84H423Q440 84 457 86T489 102Q498 110 506 125T515 164Q515 185 508 201T484 229Q469 239 452 241T423 244H380V84ZM380 510V328H450Q464 328 481 327T515 321T550 307T583 282Q597 268 605 252T618 220T624 190T625 165Q625 153 624 137T617 103T601 68T572 36Q556 23 529 12T460 0H275V424H188L187 338Q186 261 180 212T170 142Q168 129 165 114T155 84T140 54T118 27Q96 7 65 0T0 0V87Q19 86 32 91T53 104T65 121T72 139Q76 151 79 167T84 206T89 260T93 334Q93 345 93 360T94 391T95 420T96 439L97 510H380Z"  />
<glyph unicode="&#x45A;" horiz-adv-x="705" d="M423 84H466Q483 84 499 86T532 102Q543 111 550 125T558 159Q558 183 550 196T532 217Q516 229 497 231T466 234H423V84ZM318 318V510H423V318H493Q523 318 558 311T626 272Q651 247 659 221T668 165Q668 117 653 86T615 36Q599 23 572 12T503 0H318V234H168V0H63V510H168V318H318Z"  />
<glyph unicode="&#x45B;" horiz-adv-x="484" d="M175 688V632H335V562H175V440Q180 451 190 466T215 493Q232 507 254 513T298 519Q328 519 352 509T391 483Q417 454 420 413T424 318V0H319L320 318Q320 356 317 378T304 414Q297 423 286 431T257 439Q237 439 224 431T201 408Q182 382 179 352T175 289V0H70V562H6V632H70V688H175Z"  />
<glyph unicode="&#x45C;" horiz-adv-x="438" d="M168 308H224Q242 308 251 313T263 322Q268 327 271 337T277 368Q280 387 282 403T289 440Q292 454 298 468T319 495Q335 508 353 511T388 514Q395 514 400 514T413 510V434Q401 437 392 433T377 421Q375 418 373 411T368 384L362 344Q360 331 355 317T336 291Q328 284 318 280T297 274V272Q301 272 308 270T324 263T341 247T356 221Q360 210 361 201T364 181T367 157T372 128Q377 104 388 92T428 80V0Q422 -2 415 -3T399 -4Q382 -4 364 -1T333 11Q307 26 297 52T284 98Q283 103 283 108T281 122T278 143T273 176Q272 183 270 191T264 206T251 217T228 222H168V0H63V510H168V308ZM336 741L386 669L202 569L166 612L336 741Z"  />
<glyph unicode="&#x45E;" horiz-adv-x="383" d="M315 698Q315 685 310 662T283 612Q262 587 239 579T184 570Q155 570 131 578T85 612Q63 638 58 661T53 698H140Q138 675 149 657Q157 643 167 639T184 635Q196 635 207 642T224 657Q229 665 231 676T232 698H315ZM106 510L194 160L285 510H380L215 -32Q205 -63 194 -94T164 -145Q141 -169 115 -175T63 -182Q49 -182 38 -181T13 -176V-91Q24 -93 33 -93T54 -94Q73 -94 87 -90T116 -65Q121 -57 125 -46T134 -23T140 0T145 17L0 510H106Z"  />
<glyph unicode="&#x45F;" horiz-adv-x="468" d="M63 510H168V86H300V510H405V0H279V-130H189V0H63V510Z"  />
<glyph unicode="&#x490;" horiz-adv-x="439" d="M181 0H67V686H331V836H429V592H181V0Z"  />
<glyph unicode="&#x491;" horiz-adv-x="354" d="M274 510V640H364V424H168V0H63V510H274Z"  />
<glyph unicode="&#x2013;" horiz-adv-x="422" d="M388 298V217H34V298H388Z"  />
<glyph unicode="&#x2014;" horiz-adv-x="650" d="M618 298V217H32V298H618Z"  />
<glyph unicode="&#x2018;" horiz-adv-x="230" d="M55 445V569L125 698H175L116 572H165V445H55Z"  />
<glyph unicode="&#x2019;" horiz-adv-x="195" d="M147 686V562L77 433H27L86 559H38V686H147Z"  />
<glyph unicode="&#x201A;" horiz-adv-x="249" d="M187 129V6L111 -145H62L125 0H72V129H187Z"  />
<glyph unicode="&#x201C;" horiz-adv-x="387" d="M57 445V569L126 698H176L118 572H167V445H57ZM211 445V569L280 698H330L271 572H320V445H211Z"  />
<glyph unicode="&#x201D;" horiz-adv-x="387" d="M330 686V562L261 433H211L269 559H221V686H330ZM176 686V562L107 433H57L116 559H67V686H176Z"  />
<glyph unicode="&#x201E;" horiz-adv-x="387" d="M330 127V3L261 -125H211L269 0H221V127H330ZM176 127V3L107 -125H57L116 0H67V127H176Z"  />
<glyph unicode="&#x2020;" horiz-adv-x="528" d="M314 686V493H465V403H314V-172H214V403H63V493H214V686H314Z"  />
<glyph unicode="&#x2021;" horiz-adv-x="528" d="M314 686V493H465V403H314V111H465V22H314V-172H214V22H63V111H214V403H63V493H214V686H314Z"  />
<glyph unicode="&#x2022;" horiz-adv-x="694" d="M348 494Q407 494 447 452Q466 432 477 405T488 350Q488 323 477 296T447 248Q429 230 402 218T348 206Q320 206 294 217T248 248Q228 268 217 294T206 350Q206 379 217 405T248 452Q268 472 294 483T348 494Z"  />
<glyph unicode="&#x2026;" horiz-adv-x="950" d="M846 126V0H735V126H846ZM531 126V0H419V126H531ZM215 126V0H104V126H215Z"  />
<glyph unicode="&#x2030;" horiz-adv-x="1141" d="M964 357Q956 357 941 350T916 315Q913 304 911 290T907 260T906 230T905 206Q905 197 905 183T907 153T910 122T916 97Q920 83 927 75T941 62T954 56T965 55Q980 55 993 66T1013 97Q1014 99 1019 123T1024 206Q1024 215 1024 229T1022 259T1019 289T1013 315Q1008 329 1002 337T988 350T975 356T964 357ZM964 418Q983 418 1008 414T1060 383Q1078 365 1088 343T1104 298T1111 251T1113 206Q1113 193 1112 171T1106 123T1090 72T1060 28Q1037 5 1013 -1T965 -7Q948 -7 922 -2T869 28Q849 48 833 89T816 206Q816 221 817 243T823 291T839 340T869 384Q893 407 916 412T964 418ZM614 357Q610 357 604 356T590 351T577 338T565 315Q560 299 558 275T555 206Q555 161 557 137T565 97Q570 83 576 75T590 62T603 56T614 55Q617 55 623 56T636 61T650 73T662 97Q665 107 667 122T671 152T672 182T673 206Q673 216 673 230T671 260T668 289T662 315Q660 320 657 327T649 341T635 352T614 357ZM614 418Q633 418 658 414T710 383Q728 364 738 340T754 291T761 244T762 206Q762 194 761 172T755 123T739 72T710 28Q684 3 658 -2T614 -7Q597 -7 571 -2T518 28Q501 45 491 67T475 113T468 161T466 206Q466 228 467 252T474 300T490 345T518 384Q544 410 570 414T614 418ZM598 686L264 0H191L526 686H598ZM176 631Q172 631 166 630T152 625T139 612T127 589Q122 574 120 550T117 480Q117 431 119 408T127 371Q132 357 138 349T151 336T164 331T176 330Q180 330 186 331T199 335T212 347T224 371Q228 382 230 397T233 429T234 458T235 480Q235 492 235 506T233 535T230 564T224 589Q222 594 219 601T211 615T197 626T176 631ZM176 693Q193 693 219 688T272 658Q290 640 300 615T316 565T323 517T324 480Q324 465 323 442T317 395T301 346T271 303Q245 278 220 273T176 268Q159 268 133 273T80 303Q63 319 53 340T37 385T30 433T28 480Q28 501 29 525T36 574T52 620T80 659Q106 683 132 688T176 693Z"  />
<glyph unicode="&#x2039;" horiz-adv-x="247" d="M142 99L46 264L142 428H201L147 264L201 99H142Z"  />
<glyph unicode="&#x203A;" horiz-adv-x="247" d="M104 428L201 264L104 99H46L99 264L46 428H104Z"  />
<glyph unicode="&#x20AC;" horiz-adv-x="528" d="M193 351Q193 342 193 333T195 316H402L375 242H201Q203 214 211 183T235 129Q252 103 275 92T326 81Q344 81 365 87T406 102Q433 114 454 128T493 160V42Q468 21 431 7Q404 -3 373 -8T318 -13Q243 -13 196 22T119 122Q105 154 98 185T88 242H8L35 316H83Q82 325 82 333Q82 342 82 351Q82 359 82 368Q82 377 83 385H6L33 459H92Q93 474 97 492T107 531T124 573T149 614Q169 641 191 658T235 684T277 696T316 699Q350 699 389 691T464 668Q478 663 492 656T520 640L482 539Q469 549 452 560T411 583Q381 597 360 601T326 605Q297 605 277 596T241 564Q227 544 217 514T203 459H454L427 385H196Q193 367 193 351Z"  />
<glyph unicode="&#x2116;" horiz-adv-x="893" d="M197 686L423 191V686H519V0H413L159 550V0H63V686H197ZM811 271V201H577V271H811ZM691 626Q671 626 663 613T650 586Q648 579 644 559T640 503Q640 468 643 451T649 428Q657 404 670 395T695 386Q706 386 718 393T738 422Q746 442 747 460T748 503Q748 526 747 544T739 585Q737 591 734 598T726 611T712 621T691 626ZM694 686Q719 686 738 680T769 664T789 647T799 635Q808 622 814 606T823 571T828 535T830 501Q830 490 829 475T825 443T816 409T799 377Q794 371 786 362T765 345T735 332T694 326Q656 326 630 341T590 377Q572 402 565 437T558 501Q558 532 565 571T590 635Q604 654 630 670T694 686Z"  />
<glyph unicode="&#x2122;" horiz-adv-x="716" d="M597 287V594L502 287H454L359 591V287H293V686H405L486 424L568 686H669V287H597ZM96 287V624H10V686H260V624H174V287H96Z"  />

</font>
</defs>
</svg>
